<?xml version="1.0" encoding="UTF-8"?>
<svg version="1.1" viewBox="0 0 1400 1408" width="350" height="352" xmlns="http://www.w3.org/2000/svg">
<path transform="translate(669,293)" d="m0 0h18l21 3 13 3 106 14 49 8 42 6 20 2 3-9 10-9 6-1 12 2 5 6 3 6 3 3v9h9l21 5 10 2 1 1 1 7v226l-1 53-3 38-7 40-8 31-10 32-8 18-12 26-8 17-12 22-8 14-18 27-9 12-11 15-9 10-9 11-9 10-23 23-8 7-9 8-13 10-14 11-23 16-15 10-16 10-21 12-17 9-22 12-19 10-10-2-16-9-22-12-14-8-23-13-30-20-17-12-16-12-16-13-8-7-13-12-25-25-9-11-11-12-21-28-16-25-10-16-14-26-7-15-11-24-9-24-12-40-9-39-4-25-2-21-1-43v-250l2-4 28-6 36-5 68-9 35-6 24-4 53-7 54-7 19-4z" fill="#0E37CD"/>
<path transform="translate(669,293)" d="m0 0h18l21 3 13 3 106 14 49 8 42 6 20 2 3-9 10-9 6-1 12 2 5 6 3 6 3 3v9h9l21 5 10 2 1 1 1 7v226l-1 53-3 38-7 40-8 31-10 32-8 18-12 26-8 17-12 22-8 14-18 27-9 12-11 15-9 10-9 11-9 10-23 23-8 7-9 8-13 10-14 11-23 16-15 10-16 10-21 12-17 9-22 12-19 10-10-2-16-9-22-12-14-8-23-13-30-20-17-12-16-12-16-13-8-7-13-12-25-25-9-11-11-12-21-28-16-25-10-16-14-26-7-15-11-24-9-24-12-40-9-39-4-25-2-21-1-43v-250l2-4 28-6 36-5 68-9 35-6 24-4 53-7 54-7 19-4zm6 77-26 3-86 13-81 11-65 10-11 2v229l4 35 6 27 8 31 8 24 10 24 9 20 16 28 7 11 8 12 5 7 1 3h2l2 5 3 4h2l2 4 6 8 7 9 5 5 5 6h2l2 4 2 3h2l2 4 11 10 8 7 4 2 1 3 11 8 10 8 4 3h2l1 3h3v2l5 3h2v2l18 11 17 10 10 6 28 15 4 3h2v2l6 1 15-9 14-7 12-7 9-5 10-6 18-11 14-10 2-1v-2l5-2 2-1v-2l4-1v-2l4-2 8-7 12-9 7-8 10-9 5-5 6-8 7-6 11-14 10-13 11-16 14-22 16-28 10-22 11-27 9-30 7-30 5-23 3-32v-225l-9-2-13-2-22-3-12-2-40-6-17-2-41-6-25-3-27-5-16-2-39-6z" fill="#95C1FA"/>
<path transform="translate(262,861)" d="m0 0h11l10 3h28l9 3 8 6 5 5 8 16 8 20 24 58 10 23 10 15 12 17 9 12 12 17 15 22 10 15 5 9 1 4v10l-3 10-7 9-4 5h-2l-3 12-3 6-8 9-8 6-29 12-18 8-25 12-13 9-18 13-13 9-7 4-6 2h-20l-5-2h-7l-2 1-14 1-12-4-8-6-6-9-8-16-12-29-11-26-11-28-8-17-9-13-12-17-8-12-15-20-13-19-7-10-7-14-1-10 3-14 6-9 8-10 3-10 5-9 5-5 15-8 34-14 21-9 11-8 14-9 14-10 17-11z" fill="#FEF9D3"/>
<path transform="translate(1188,837)" d="m0 0h11l12 6 9 8 8 10 12 13 8 10 7 7 9 11 9 10 10 11 7 8 10 11 9 11 8 8 7 9 8 10 3 6v16l-5 8-13 13-11 9-10 9-15 13-10 9-6 5h-2v2l-8 7-14 11-11 11-8 6-12 11-11 9-9 9-9 7-12 11-11 9-15 13-12 11-11 9-11 10-9 5-11 1-10-2-6-3-11-11-8-10-10-11-9-11-7-7-7-8-9-10-11-13-10-11-7-9-10-11-7-9-9-9-5-8-2-12 1-12 6-9 13-11 12-11 8-7 13-12 10-8 6-6-2-4-8-10-2-4v-13l5-10-2-6 4-8 7-7 13-10 12-12 10-8 8-5 7 1 1 1h5l7-3 8 1 7 4 8 7v2l4 2 4-1 15-13 12-11 10-8 8-8 17-13zm-102 55-2 4 2 4-1 5-8 9-8 7-14 12-15 13-5 4-6 1-8-2-3 3 1 5 9 11 1 2 5-1 12-12 9-7 5-5 14-12 11-9 7-7 11-9v-3l-4-2-2-4-5-5z" fill="#F76C6E"/>
<path transform="translate(623,484)" d="m0 0h63l47 1 1 1v91l94 1v109l-1 1-64 1-18 1-10 2-1 93-1 1h-110l-1-5-1-89-1-1-10-1-82-1-1-1v-110l94-1 1-92z" fill="#FDFDFD"/>
<path transform="translate(126,135)" d="m0 0 17 3 39 12 18 6 39 11 30 10 30 9 19 6 10 6 6 7 1 2v11l-5 12-7 23-6 9-13 4-10 36-7 20-15 49-6 17-5 14-7 9-14 7-3 1h-15l-25-7-26-8-31-10-38-11-12-5-8-3-9-8-6-12-3-9 2-10 9-30 11-36 9-27 10-35v-5l-5-6-2-11 6-23 9-21 6-5z" fill="#A3BFF9"/>
<path transform="translate(272,886)" d="m0 0 2 2-8 5-5 5v5l6 2 15 7 8 2-2 3-10 4-9 4-10 3-8 4-7 2-12 5-13 5-12 5-20 8-24 10-11 5-1 3 3 6 4 1 12-5 12-4 12-5 9-4 11-5 21-7 11-5 7-3 12-5 20-8 12-4 20-10 1 14 5 7-2 3-12 4-11 5-14 5-11 5-11 4-8 4-14 5-12 5-12 4-15 7-16 6-14 5-8 4 1 7 3 3 13-3 11-5 13-5 12-5 13-5 30-12 9-4 18-6 14-7 14-5 13-6 5 1 7 14 1 6-16 4-13 5-4 2h-4v2l-29 12-19 7-7 3-11 5-20 7-21 9-15 6-4 4 1 5 2 2 8-1 12-4 12-5 17-6 9-5 16-6 19-7 9-4 14-6 31-12 10-4 6-5 5 3 3 12 2 9-10 2-11 5-11 4-28 11-21 9-20 7-12 5-8 4-22 8-15 6-4 4v6l3 3 9-2 18-7 10-5 12-4 9-4 22-9 13-5 12-5 13-5 11-4 10-5 13-5 9-4 2-3 3 10 1 7 4 8-9 2-20 8-13 5-11 5-16 6-14 5h-3v2l-9 4-19 7-15 6-27 11-5 2-1 6 3 4 8-1 10-4 15-5 9-4 13-5 8-4 13-5 14-5 9-4 8-3 8-4 16-6 26-10 3-1 1 12 4 4v2h3v2l-8 4-14 5-13 5-16 6-8 4-12 4-12 5-16 6-15 7-16 6-9 4-9 3-9 4v9l1 1h7l22-8 12-6 12-4 12-5 16-6 10-5 12-4 12-5 14-5 12-5 5-3 5-1-2 5-7 7-3 5v3l3 1v2h3v2l-7 4-16 6-12 4-9 4-10 4-17 7-13 5-12 5-11 4-8 4-10 4-9 5 1 5 3 4 5-1 11-5 20-7 12-5 15-6 11-5 15-5 6-3 12-4 5-3 14-5 9-4 5-1v3l-26 12-7 4h-2l-4 16-5 6-7 6-5 5-11 13-7 11 1 10-2 5-20 9-8 3-13 5-7 1h-8l-8-3-6-5-5-10-10-25-10-23-10-26-7-17-4-8-5-13-6-16-7-14-7-19-6-13-5-13-4-8-7-18-4-10-5-12-4-11 1-9 6-8 8-7 14-6 21-8 10-4 8-4 14-5 12-5 27-12 17-6z" fill="#FDFCFA"/>
<path transform="translate(669,293)" d="m0 0h18l21 3 13 3 106 14 49 8 42 6 20 2 3-9 10-9 6-1 12 2 5 6 3 6 3 3v9h9l21 5 10 2 1 1 1 7v226l-1 53-3 38-7 40-8 31-10 32-8 18-12 26-8 17-12 22-8 14-18 27-9 12-11 15-9 10-9 11-9 10-23 23-8 7-9 8-13 10-14 11-23 16-15 10-16 10-21 12-17 9-22 12-19 10-10-2-16-9-22-12-14-8-23-13-30-20-17-12-16-12-16-13-8-7-13-12-25-25-9-11-11-12-21-28-16-25-10-16-14-26-7-15-11-24-9-24-12-40-9-39-4-25-2-21-1-43v-250l2-4 28-6 36-5 68-9 35-6 24-4 53-7 54-7 19-4zm1 15-25 2-69 11-27 4-75 10-63 10-61 9-2 1v271l1 16 3 19 3 22 7 36 6 21 5 14 7 21 8 20 15 32 7 14 9 15 10 17 14 20 9 12 8 10 9 11 12 13 7 8 26 26 11 9 11 10 19 14 17 12 11 7 13 8 10 6 16 9 15 9 12 6 14 8 11 7 6 1 9-6 3-1v-2l5-2 23-13 6-2v-2l5-2 6-4 6-2v-2l6-2 7-3v-2l6-2 16-11 10-6 4-2 4-4 4-2v-2l4-2 12-9 5-4 3-1 5-6 6-4 4-5 12-9 7-8 8-7 7-8v-2l4-2 3-5 9-8 1-3 7-7v-3l4-2v-3l3-1 2-4 2-1 2-5 2-1 3-6 5-6 5-9 3-4v-2l3-1 8-14 4-8v-2h2l6-13v-2h2l13-28v-4h2l10-25 8-23 6-20 6-26 6-36 4-31 1-35v-89l-1-157-26-4-39-5-66-11-27-3-17-3-13-1-96-15-11-1-10-2-10-1z" fill="#1039CC"/>
<path transform="translate(1109,73)" d="m0 0 9 3 8 9 2 6v8l-6 11-5 5-3 1h-7l-6-3-4-5-3-7-4 1-6 7-1 27v31l10 1 1 7 1 72 4 11 4 6 13 14 14 7 9 2h16l12-3 8-4 10-9 8-9 4-9 2-9 1-11 1-65 11-1-1-50-3-10-5-6-3-1-2 6-5 7-4 2h-8l-5-3-5-6-3-7-1-6 2-9 4-6 5-4 8-1 7 3 5 5 3 5 10 7 6 7 4 9 1 4 1 54 8 1 2 5v49l-1 25-3 14-12 22-9 11-8 7-9 6-10 5-24 7h-2l1 49 6 10 7 4 8 1 7-3 7-6 2-5 1-17 5-8 5-3 4-1 27-1 14 2 6 5 2 4 1 11v8l21-1 2-6 5-7 8-4 10-2 9 1 8 4 7 8 4 8 1 3v8l-3 7-6 8-8 6-7 2-14-1-11-7-7-10h-22l-8-4-4-6-2-6v-12l1-3h-30l-2 18-5 10-7 8-10 5-8 2h-12l-11-4-8-6-6-8-4-10v-51l-10-2-18-6-14-8-10-9-8-8-7-12-8-19-1-4-1-13v-64l1-6 3-1h7v-57l3-9 8-9 10-8 7-7z" fill="#0C2839"/>
<path transform="translate(262,861)" d="m0 0h11l10 3h28l9 3 8 6 5 5 8 16 8 20 24 58 10 23 10 15 12 17 9 12 12 17 15 22 10 15 5 9 1 4v10l-3 10-7 9-4 5h-2l-3 12-3 6-8 9-8 6-29 12-18 8-25 12-13 9-18 13-13 9-7 4-6 2h-20l-5-2h-7l-2 1-14 1-12-4-8-6-6-9-8-16-12-29-11-26-11-28-8-17-9-13-12-17-8-12-15-20-13-19-7-10-7-14-1-10 3-14 6-9 8-10 3-10 5-9 5-5 15-8 34-14 21-9 11-8 14-9 14-10 17-11zm35 14-12 5-10 5-14 5-9 4-11 4-28 12-20 8-9 4-8 4-17 6-20 8-6 4-7 7-4 8 1 10 15 36 7 18 10 22 6 16 4 10 6 12 6 16 5 13 6 13 18 45 7 16 5 12 8 20 5 6 4 3 7 2h8l10-2 20-8 25-11 25-10 10-5 16-6 5-3 7-2 3-2 8-2v-2l9-2 18-8 11-5v-2l4-2v-2h2l2-9h2v-9l-6-17-6-12-6-16-11-27-9-21-11-27-14-33-10-26-8-18-11-28-5-9-3-10-6-10-8-7-3-1z" fill="#2E3144"/>
<path transform="translate(371,351)" d="m0 0 5 1-1 84v175l2 30 4 36 7 36 7 25 9 29 7 19 17 38 13 25 12 20 13 18 12 17 22 28 10 11 7 8 25 25 11 9 10 9 12 9 13 10 19 13 15 10 25 14 11 6 23 13 2 2 4 2-5 5-5 1-11-6-13-8-11-6-12-6-15-9-16-9-19-12-18-12-19-14-10-8-14-12-13-12-24-24-7-8-9-10-8-10-10-13-13-18-12-19-12-21-7-12-11-24-8-18-7-18-3-10-3-8-8-25-6-27-5-29-3-23-1-6-1-16v-271l7-2z" fill="#FBFCFD"/>
<path transform="translate(611,472)" d="m0 0h135l2 2v92h92l3 2v133l-2 2-11 1h-82v87l-2 5-5 2h-129l-3-2-1-10v-82l-92-1-3-3v-114l1-19 1-1h93v-93zm12 12-1 1-1 92-94 1v110l1 1 82 1 10 1 1 1 1 89 1 5h110l1-1 1-93 10-2 18-1 64-1 1-1v-109l-94-1v-91l-1-1-47-1z" fill="#3E89E4"/>
<path transform="translate(1188,837)" d="m0 0h11l12 6 9 8 8 10 12 13 8 10 7 7 9 11 9 10 10 11 7 8 10 11 9 11 8 8 7 9 8 10 3 6v16l-5 8-13 13-11 9-10 9-15 13-10 9-6 5h-2v2l-8 7-14 11-11 11-8 6-12 11-11 9-9 9-9 7-12 11-11 9-15 13-12 11-11 9-11 10-9 5-11 1-10-2-6-3-11-11-8-10-10-11-9-11-7-7-7-8-9-10-11-13-10-11-7-9-10-11-7-9-9-9-5-8-2-12 1-12 6-9 13-11 12-11 8-7 13-12 10-8 6-6-2-4-8-10-2-4v-13l5-10-2-6 4-8 7-7 13-10 12-12 10-8 8-5 7 1 1 1h5l7-3 8 1 7 4 8 7v2l4 2 4-1 15-13 12-11 10-8 8-8 17-13zm2 12-10 6-12 11-11 9-12 11-15 12-4 5-11 9-15 14-13 11-11 9-14 13-8 7-15 13-4 3v2l-4 2-12 10-9 6-4 5-10 8-12 11-10 9-8 7-5 6-1 2v8l7 11 12 13 7 8 12 14 11 13 10 10 9 11 11 12 7 8 9 10 8 10 12 13 6 7 4 2h10l11-8 10-9 11-9 13-12 11-9 12-11 11-9 12-11 11-9 12-11 10-8 7-7 11-9 11-10 8-7 13-11 11-10 11-9 13-12 11-9 8-10 1-2v-8l-3-6-12-14-11-12-7-8-12-13-7-8-18-20-9-11-9-10-9-11-13-15-9-9-8-4zm-104 43-2 4 2 4-1 5-8 9-8 7-14 12-15 13-5 4-6 1-8-2-3 3 1 5 9 11 1 2 5-1 12-12 9-7 5-5 14-12 11-9 7-7 11-9v-3l-4-2-2-4-5-5z" fill="#2B3045"/>
<path transform="translate(124,143)" d="m0 0 10 1 23 7 25 8 30 9 21 7 24 7 29 9 33 11 6 4 1 6-3 15-4 13-7 14-3 3h-7l-13-5-16-4-33-11-17-5-23-7-17-5-25-8-26-8-16-5-6-4-3-4 1-9 6-22 5-12z" fill="#FCFBFA"/>
<path transform="translate(669,293)" d="m0 0h18l21 3 13 3 106 14 49 8 42 6 20 2 3-9 10-9 6-1 12 2 5 6 3 6 3 3v9h9l4 1v2l3 1v1l-18-1-1-1-13-2-27-3-58-9-28-4-21-4-13-1-15-3-24-3-18-2-4-1-13-1-1-1-24-3-14-3-14-1h-28l-7 1h9l10 1 4-2h7l5 1h13l13 3 1 2-3 1 7 2-3-2v-2l11 1 6 2-4 2v2h-10l-10-1-1-2-5-1-1 1h-9l-4-1v2l-35 2-24 3-69 11-89 12-63 10-34 5-29 4v84l-2 163-3 17v3h-2l-1 8-3 8-2-2-1-39v-250l2-4 28-6 36-5 68-9 35-6 24-4 53-7 54-7 19-4z" fill="#1C347E"/>
<path transform="translate(126,135)" d="m0 0 17 3 39 12 18 6 39 11 30 10 30 9 19 6 10 6 6 7 1 2v11l-5 12-7 23-6 9-13 4-10 36-7 20-15 49-6 17-5 14-7 9-14 7-3 1h-15l-25-7-26-8-31-10-38-11-12-5-8-3-9-8-6-12-3-9 2-10 9-30 11-36 9-27 10-35v-5l-5-6-2-11 6-23 9-21 6-5zm-2 8-5 5-5 12-6 22-1 9 5 6 12 5 21 6 22 7 42 13 17 5 19 6 22 7 17 5 18 6h7l5-6 6-13 5-19 1-11-4-4-9-4-42-14-28-8-22-7-25-8-37-11-21-7-10-2zm-9 64-12 35-7 24-8 26-12 36-2 9v12l3 10 3 5 6 4 23 8 17 5 7 3 28 8 24 7 14 5 19 6 13 2 10-3 6-4 6-7 4-8 18-57 3-8 6-22 7-23 3-6 2-7 1-3-21-6-28-9-39-12-24-8-35-10-13-4-3-2-13-4z" fill="#121D3F"/>
<path transform="translate(662,297)" d="m0 0h28l20 2 15 3 17 2 1 1 13 1 16 2 19 3 11 1 15 3 20 2 26 5 25 3 36 6 28 4 16 2 9 1 1 1 17 1-2-2 8 1 19 4 1 1 1 7v226l-1 53-3 38-7 40-7 27h-3l-2 2 1-10-4 2-1 4 2 1-4 5-3-1 1-10 6-26 6-36 4-31 1-35v-246l-19-2-46-6-66-11-27-3-17-3-13-1-96-15-11-1-10-2-10-1-2-1v-2l13 1 1-2 6 1v2l13 1 7 1v-2l2-2-15-3v2l4 2-3 1-6-2 3-3-13-3h-17l-1-1h-7l-4 2-10-1h-13l3-2z" fill="#1338B1"/>
<path transform="translate(262,861)" d="m0 0h11l10 3h28l9 3 8 6 5 5 8 16 8 20 24 58 10 23 10 15 12 17 9 12 12 17 15 22 10 15 5 9 1 4v10l-3 10-4 6h-2v-6l3-3 1-6-3-2 2-8-6-5v-7l-7-11-5-8-3-5-4-5-3-2v-5l-4-2-5-8-3-5-2-4h-2l-3-5-4-5v-2l-3-1-11-18-7-10-2-6h-2l-4-9v-3l-2-1-1-8-2-1-6-15v-2l-2-2 1-2-2-1-2-4-2-3v-3l-7-11v-3l-3-3v-3l-3-8-2-1v-4h-3l-1 2-1-5h-2l-1-4v-3l-4-7-6-9v-2h-4l-6-2h-13l-12 5-10 5-14 5-9 4-11 4-28 12-20 8-9 4-8 4-17 6-20 8-6 4-8 9-2 5v12l-1 4 4 7 1 5 4 10-1 4 3 1 2 4-1 3-2 2-4-9-7-16v-3h-2l-3-9-4-2 1 5h-2l-3 9-4 1-1 3v8l2 7v3l6 7 5 7v2l3 1 4 8 1 3h2l1 3 3 3 6 10 1 3 4 3v3h3l6 11 3 4v3l4 2 2 5h2l5 10v8l-4-2-9-14-13-18-6-9-12-16-13-19-7-10-7-14-1-10 3-14 6-9 8-10 3-10 5-9 5-5 15-8 34-14 21-9 11-8 14-9 14-10 17-11z" fill="#2E3246"/>
<path transform="translate(1148,316)" d="m0 0 6 1 3 2h-2l1 49 6 10 7 4 8 1 7-3 7-6 2-5 1-17 5-8 5-3 4-1 27-1 14 2 6 5 2 4 1 11v8l21-1 2-6 5-7 8-4 10-2 9 1 8 4 7 8 4 8 1 3v8l-3 7-6 8-8 6-7 2-14-1-11-7-7-10h-22l-8-4-4-6-2-6v-12l1-3h-30l-2 18-5 10-7 8-10 5-8 2h-12l-11-4-8-6-6-8-4-10v-51l4 4 2-6z" fill="#1F2D4D"/>
<path transform="translate(1119,975)" d="m0 0 4 1 10 11 7 8 3 3 5-2 14-12 6-6h3l8 10 9 10 4 3v3l-11 9-8 7-3 5 1 6 10 10 6 8v5l-7 5-13 13-5 1-9-11-7-8-4-3-7 2-11 10-8 6-4-1-18-20-1-4 9-8 10-8 3-3v-5l-9-11-7-7-3-4v-3l13-10 5-5z" fill="#FDFBFA"/>
<path transform="translate(1315,966)" d="m0 0 10 5 9 12 1 3v16l-5 8-13 13-11 9-10 9-15 13-10 9-6 5h-2v2l-8 7-14 11-11 11-8 6-12 11-11 9-9 9-9 7-12 11-11 9-15 13-12 11-11 9-11 10-9 5-11 1-10-2-6-3-11-11-8-10-10-11-9-11-7-7-7-8-9-10-11-13-10-11-7-9-10-11-7-9 1-6-4-10-2-6 5 5 9 11 12 13 9 11 13 15 10 10 9 11 11 12 7 8 9 10 8 10 12 13 5 6 4 2h10l11-8 10-9 11-9 13-12 11-9 12-11 11-9 12-11 11-9 12-11 10-8 7-7 11-9 11-10 8-7 13-11 11-10 11-9 13-12 11-9 8-11v-8l-1-6 1-5-1-3h-2l-5-8z" fill="#2E2639"/>
<path transform="translate(744,555)" d="m0 0h3v11h93l3 2v133l-2 2-11 1h-82v87l-2 5-5 2h-129l-3-2-1-10v-82l-51-1 1-2h7v-1l11-1 3-1h16l16-1 3 2 1 10v9l-1 7-1 20 1 31v4l3 11h118l3-10-1-4 1-11-1-50 1-13 2-5 4-2h10l6 1 10-1h45l10-1 6-3v-2h-61l-7-1v-1l64-1 1-108 2 3v21l1 80h2l1-8 2-13-1-22v-18l-2-16-1-13 1-1 1-8 1-5v-6h-96l-1-1v-12l2-2z" fill="#5495E4"/>
<path transform="translate(1120,960)" d="m0 0 4 1 15 16 5 6 4-2 11-9 9-8 5 1 11 11 7 8 9 10 5 7v5l-9 10-12 9 1 4 5 5v2h2l9 11 2 4-1 4-13 12-14 13-11 7-5-1-12-13-7-7h-4l-2 4-12 10-7 4-5-1-10-10-11-14-7-7-3-4v-6l5-5 14-12 2-2-1-5-12-13-6-7 1-5 15-13 14-12zm-1 15-7 6-5 6-11 8 1 4 9 10 9 11v5l-11 10-8 6-3 3 2 5 11 12 7 8 5-1 9-8 10-8 5-1 10 9 9 12 4 1 8-7 6-5 5-5 3-2v-5l-9-11-7-7-1-6 6-8 11-9 5-4-1-4-8-7-11-13-1-2-4 1-9 9-10 8-5 2-9-9-9-11-3-3z" fill="#2E2639"/>
<path transform="translate(179,264)" d="m0 0 8 1 22 6 1 4-8 24v3l14 5 14 3 1 2-4 11-6 20-6-2-14-5-8-2-5 11-3 9-1 9-2 1-11-6-16-4-2-1 3-16 3-14-9-2-17-6 1-9 6-22 17 4 11 3h3l4-14z" fill="#FDFCFB"/>
<path transform="translate(316,876)" d="m0 0 4 2 6 10 4 5 2 7-1 3 3-1v5l4-1 2 4h1l3 9v3 2l3 1v4l2 2 6 11v2l3 3 2 6 3 8 5 11v3l2 1-1 4 3 1 1 5 2 7h2l5 9 10 15 6 10 4 4 5 6v3h2l5 6 3 6 4 6 3 3v3l9 9 5 10 7 10 1 7v2l6 5-3 8 4 2-2 8-3 1 1 7-6 7h-2l-2 7-3-2-2 7h-2l-1 4-4 2v2l-5 2v3l-6 2-4-3 3-3h2v-2l4-4h2l2-9h2l-2-12-6-16-5-10-6-16-11-27-9-21-11-27-14-33-10-26-8-18-11-28-5-9-3-10-6-10-4-4z" fill="#2E2839"/>
<path transform="translate(373,449)" d="m0 0h1l1 162 2 30 4 36 7 36 7 25 9 29 7 19 17 38 13 25 12 20 13 18 12 17 22 28 10 11 7 8 25 25 11 9 10 9 12 9 13 10 19 13 15 10 25 14 11 6 23 13 2 2 4 2-5 5-5 1-11-6-13-8-11-6-12-6-15-9-16-9-5-4 2-1 8 3-3-6-7-6-7-4-8-4-7-7-13-8-13-11-9-6-11-9-33-31-5-5-10-15-10-10-10-15-6-10-6-9-8-11-8-16-6-10-7-10-9-19-8-20-3-8-2-6-1-12-2-5v-13l-1-1-1-7-4-6-3-14v-17l-2-8-5-38-2-24-1-15z" fill="#F4FDFD"/>
<path transform="translate(1073,177)" d="m0 0h11l1 1v61l3 14 4 10 10 14 11 10 11 5 10 3 8 1h12l15-3 9-4 11-8 9-10 8-14 2-8 1-15 1-57h13l1 1-1 70-3 11-2 6h-2l-1 6-3 1-2 5-10 12h-2v2l-13 9-10 5-12 4-7 1h-18l-11-2-13-5-10-6-7-5v-2l-4-2-9-11-6-11-5-19-1-13v-54z" fill="#65804A"/>
<path transform="translate(669,293)" d="m0 0h18l21 3 13 3 106 14 49 8 42 6 20 2 3-9 10-9 6-1 12 2 5 6 3 6 3 3v9h9l4 1v2l3 1v1l-18-1-1-1-13-2-27-3-58-9-28-4-21-4-13-1-15-3-24-3-18-2-4-1-13-1-1-1-24-3-14-3-14-1h-28l-7 1h9l10 1 4-2h7l5 1h13l13 3 1 2-3 1 7 2-3-2v-2l11 1 6 2-4 2v2h-10l-10-1-1-2-5-1-1 1h-9l-4-1v2l-35 2-24 3-69 11-52 7-13 1-4-2h2l1-2 1-3h5l-1-4 3 1h1l6 1 4-3 14 1v-2l10-2 6-2 18-2 5-1h15l3-2 19-3h4l4-1 3 1 1-1 16-3-34 3v-2l10-2 29-4 14-3z" fill="#1338B3"/>
<path transform="translate(122,967)" d="m0 0 3 4 4 10 10 24 7 18 10 22 6 16 4 10 6 12 6 16 5 13 6 13 18 45 7 16 5 12 8 20 4 5 2 2v2l-4-1-5-4-2-5v-3h-2l-4-12-6-11-3 1-10-25-2-4 1-5h-2v-2h-2l-5-14-4-6-8-19-1-5-6-1-3-5v-10l-2-4-2-6h-2l-4-6-2-1-3-6-6-10v-2h-3v-3l-3-1-5-8-4-7v-2l-3-1v-3h-2l-5-8-1-3-3-3-5-7v-2l-3-1-4-6 1-3-2-5v-8l2-4h3l5-10-1-5 2-1 5 6 1 7h2l9 21 2 5 2-1-1-6-3 1-1-3 1-3-5-12-1-6-3-4z" fill="#2C3045"/>
<path transform="translate(175,253)" d="m0 0 5 1 12 5 26 7 2 1-1 8-5 21-1 2 9 2 5 2 9 2 4 2-1 9-5 19-3 9-4 9-5-1-15-4-10-3-6 24-3 4-8-1-17-5-18-6-4-3 2-9 5-16 2-4h-7l-19-6-3-2 1-9 8-22 4-13 2-2 7 1 14 5 8 3 2-9 6-19zm4 11-4 13-4 14-11-2-18-5h-2l-7 25v6l23 8h3l-6 28v2l12 4 7 2 11 5 1-1 1-9 4-12 4-8 15 4 11 5h2l7-24 3-8-6-2-12-3-11-4 2-10 6-17-1-4-26-7z" fill="#111D3B"/>
<path transform="translate(567,1291)" d="m0 0h18l10 4 8 9 6 12 1 8-4 11-7 9-9 6-6 2h-15l-11-4-7-7-4-9-1-4v-15l4-9 9-9z" fill="#FBAB3E"/>
<path transform="translate(200,812)" d="m0 0h11l10 3 10 8 5 8 2 13-2 14-5 8-8 6-9 4h-14l-8-3-10-9-4-10-1-6v-9l3-10 7-9 7-6z" fill="#FCAC3F"/>
<path transform="translate(634,302)" d="m0 0 2 2-18 3-2 1-6-1-1 2h-3l-2-1-16 3-4 2h-19l-3 1-18 2-4 2-10 1v2h-14v2l-7 1-3-1-2 2-1-3v3l-3 2-1 2-3 1 2 2-2 1-42 6-43 7-34 5-29 4v41h-1l-1-18v-12l-1-5-10-2v62h-1v-74l2-4 28-6 36-5 68-9 35-6 24-4 53-7 20-2v2l10-2z" fill="#1138C1"/>
<path transform="translate(1109,73)" d="m0 0 9 3 8 9 2 6v8l-6 11-5 5-3 1h-7l-6-3-4-5-3-7-4 1-6 7-1 27v31h3v65l2 16 5 13 2 3-1 3-4-6-3-8-3-14v-61l-11-1v57l2 18 5 16 8 13 7 8 10 8 13 7 9 3 11 2h20l12-3 12-5 13-9 3-1v-2l5-5 8-10 3-3 2-6h2l1-6 3-11h1l-1 10-5 12-9 13-9 9-11 8-10 6-19 6h-20l-15-3-12-5-12-7-10-9-8-10-6-12-4-10-3-14-1-26v-35l1-3-4 2-1 2-1 56h-1v-64l1-6 3-1h7v-57l3-9 8-9 10-8 7-7z" fill="#142046"/>
<path transform="translate(113,205)" d="m0 0 3 1-13 40-9 31-12 36-6 19-1 5v12l3 10 2 5 4 2 19 7 23 7 7 3 28 8 24 7 14 5 19 6 13 2 10-3 6-4 5-6 2-2h2l5-3 5-16 3-9 4-11 3-8 10-31 1 4-15 49-6 17-5 14-7 9-14 7-3 1h-15l-25-7-26-8-31-10-38-11-12-5-8-3-9-8-6-12-3-9 2-10 9-30 11-36 7-21 3-1 1-7h2l2-6 2-7 3-9 2-3 3-9z" fill="#101D3E"/>
<path transform="translate(239,873)" d="m0 0h2v2l-6 5h-2l-1 3-2 1-1 3-5 2h-3v2l-4 2-1 2-4 2 2 2v3l-4 2v2l-5 1-2 2 4 2-3 4-14 5-14 7-17 6-20 8-6 4-8 9-2 5v12l-1 4 4 7 1 5 4 10-1 4 3 1 2 4-1 3-2 2-4-9-7-16v-3h-2l-3-9-4-2 1 5h-2l-3 9-4 1-1 3v8l2 7v3l6 7 5 7v2l3 1 4 8 1 3h2l1 3 3 3 6 10 1 3 4 3v3h3l6 11 3 4v3l4 2 2 5h2l5 10v8l-4-2-9-14-13-18-6-9-12-16-13-19-7-10-7-14-1-10 3-14 6-9 8-10 3-10 5-9 5-5 15-8 34-14 21-9 11-8 14-9 14-10z" fill="#1F2C4B"/>
<path transform="translate(662,297)" d="m0 0h28l20 2 15 3 17 2 1 1 13 1 16 2 19 3 11 1 15 3 20 2 26 5 25 3 36 6 28 4 16 2 9 1v3h-10l-5-1h-14l-9-2v-2h-7-2l-6-1v-2l-14-1-3-1h-1l1 5 32 5 9 1 3 2v-3h7l-1 2-4-1 2 2 24 2 5 1v1l24 3v2l-4 1-39-5-26-4-22-3-21-4-19-3-27-3-17-3-13-1-96-15-11-1-10-2-10-1-2-1v-2l13 1 1-2 6 1v2l13 1 7 1v-2l2-2-15-3v2l4 2-3 1-6-2 3-3-13-3h-17l-1-1h-7l-4 2-10-1h-13l3-2z" fill="#0F38CB"/>
<path transform="translate(1224,169)" d="m0 0h8l1 4v49l-1 25-3 14-12 22-9 11-8 7-9 6-10 5-20 6h-7l-6-1-3 1-1 6h-3l-1-5-8-1-21-7-14-8-10-9-8-8-7-12-8-19-1-4v-69l3-4h3v48l1 17 4 17 5 10 6 11 7 8 8 7 14 8 10 4 15 3h20l19-6 16-10 13-12 9-13 5-12 2-11 2-25v-47-4z" fill="#0B2932"/>
<path transform="translate(993,338)" d="m0 0 8 1 19 4 1 1 1 7v226l-1 53-3 38-7 40-2 9-2 1-1-7v-6l2-7 1-9 2-10v-22l-1-4v-3l4-11 1-7-1-4-1-7 1-16 1-254 1-4-10-1-10-2-1-1-16-2v-1h16z" fill="#1440CE"/>
<path transform="translate(620,473)" d="m0 0h8l2 3-5 1-3-2-6 3-2 4v6l2 7v69l-1 6v2l-7 1h-89l1 11 1 14v92l4 2h10l-4 1v5l23 3v1l-16 1h-22l-3-3v-114l1-19 1-1h93v-29l1-63z" fill="#4F92E3"/>
<path transform="translate(374,1067)" d="m0 0 5 1 1 3 2 1v5l-3 3-10 4-12 6-14 5-10 4-16 6-15 6-10 5-12 4-9 4-17 6-10 5-19 7h-7l-2-2v-9l5-3 9-4 10-3 11-5 11-4 8-4 32-12 9-4 9-3 5-3 17-6 10-4 19-7z" fill="#313349"/>
<path transform="translate(334,972)" d="m0 0h5l3 4-1 7-6 4-32 12-11 5-10 4-12 5-16 6-20 8-5 3-12 4-10 4-14 5-8 3h-5l-4-4 1-6 8-5 13-5 19-8 20-7 14-7 20-7 23-9 9-3v-2l17-6 10-4z" fill="#2E3148"/>
<path transform="translate(388,1100)" d="m0 0 5 1 2 3v6l-4 3-13 5-11 5-11 4-15 6-9 4-9 3-12 5-13 5-14 6-14 5-10 4-11 4-12 6-5-1-4-5 1-5 15-8 11-4 8-4 12-4 9-4 16-6 15-7 12-4 9-4 15-5 12-6 20-7z" fill="#313349"/>
<path transform="translate(359,1036)" d="m0 0h6l3 7-3 5-5 3-12 5-16 6-15 6-8 4-12 4-9 4-16 6-10 4-10 5-12 4-12 5-12 4-5 2h-5l-4-5 1-6 8-4 25-10 22-9 21-7v-2l20-7 15-6 27-11 8-3z" fill="#313349"/>
<path transform="translate(321,940)" d="m0 0 5 1 2 6-1 5-8 4-16 6-16 7-24 9-10 4-19 8-12 5-17 6-12 5-9 4-11 4-6 1-4-4-1-7 5-3 13-5 16-6 14-6 10-4 16-6 14-6 9-3 7-4 12-4 11-5 14-5 12-5z" fill="#2F3148"/>
<path transform="translate(346 1e3)" d="m0 0h7v3h2l1 7-5 3-13 5-12 5-8 4-16 6-14 5-31 13-13 5-9 4-13 5-9 4-16 6-4-1-3-3v-6l5-5 17-7 20-7 11-5 17-7 17-6 26-11 21-8 10-4z" fill="#2F3148"/>
<path transform="translate(305,909)" d="m0 0h8v2l4 2v4l-11 7-13 5-10 4-21 8-12 6-14 5-10 4-16 6-10 5-17 6-9 4-15 5-4 1-4-5-1-4 4-4 25-11 39-15 11-5 14-5 3-2 10-3 6-3 7-2 11-5 18-7z" fill="#313249"/>
<path transform="translate(1181,73)" d="m0 0 9 1 7 5 4 7 10 7 6 7 4 9 1 4 1 54 8 1v1l-6 1 2 5h-2l1 2v45l-2 25h-1v-69h-12l-1 56h-1v-58l1-6-1-3h3l-1-50-3-10-5-6-3-1-2 6-5 7-4 2h-8l-5-3-5-6-3-7-1-6 2-9 4-6 5-4z" fill="#101B3B"/>
<path transform="translate(388,57)" d="m0 0 5 1 5 6 7 13 1 1 20 1 5 3 1 8-5 5-10 5-6 1v23l-3 5h-4l-6-3-8-11-5-6h-17l-6-5-1-5 4-5 12-7 5-5v-18l3-5z" fill="#E0506F"/>
<path transform="translate(623,484)" d="m0 0h63l47 1 1 1v91l94 1-1 2-25 1-10 1-50 1-7-1-2-2-1-94-19 1-4 3-11 2 1 4-1 1-31 2-16 3h-13l-5-5-2-4-7-2-1 87-3 4-21 1-7 1h-39l-5 1-13-1-6-1-1 105h-1v-110l94-1 1-92z" fill="#EFFAFD"/>
<path transform="translate(110,195)" d="m0 0 11 5 24 7 22 7 42 13 17 5 19 6 22 7 17 5 18 6 6 1-2 3-4 1 1 3-7-1-3 1-17-5-28-9-39-12-24-8-35-10-13-4-3-2-13-4-6-3h-3l-3 9-3 5-2 7-3 9-3 6-2 6h-2l2-10 9-31v-6l5-1h1l-2-5z" fill="#2C273C"/>
<path transform="translate(669,293)" d="m0 0h18l21 3 13 3 106 14 49 8 42 6 20 2 3-9 10-9 6-1 12 2 5 6 3 6 3 3v9h9l4 1v2l3 1v1l-18-1-1-1-13-2-27-3-58-9-28-4-21-4-13-1-15-3-24-3-18-2-4-1-13-1-1-1-24-3-14-3-14-1h-28l-14 2-3-1v2l-10 2-35 3v-2l10-2 29-4 14-3z" fill="#1E3888"/>
<path transform="translate(1071,892)" d="m0 0 4 1 3 9-1 2 4-3h2v-2l4 1-1 5-9 10-8 7-14 12-15 13-5 4-6 1-10-2v2h-2l-1-3 3-7v-3h2l-2-4 1-4 3-2 1-4 7-4 1-3 6-5 5-1 1-4 9-5 2-3h2l1-5 10-2z" fill="#2C3144"/>
<path transform="translate(137,287)" d="m0 0 2 1-1 7-4 14-1 6 9 2 17 6-1 11-4 17-1 2 18 4 12 6 1-9 4-12 4-8 2-1 16 5 11 5 2-10 4-14h3l-1 12-1 5-1 3h2l1-2 1 6-4 9-5-1-15-4-10-3-6 24-3 4-8-1-17-5-18-6-4-3 2-9 5-16 2-4h-7l-19-6-3-2 1-9 2-6 2 2h3l3-4 4-13z" fill="#272845"/>
<path transform="translate(292,864)" d="m0 0h19l9 3 8 6 5 5 8 16 8 20 24 58 10 23 10 15 12 17 9 12 12 17 15 22 10 15 5 9 1 4v10l-3 10-4 6h-2v-6l3-3 1-6-3-2 2-8-6-5v-7l-7-11-5-8-3-5-4-5-3-2v-5l-4-2-5-8-3-5-2-4h-2l-3-5-4-5v-2l-3-1-11-18-7-10-2-6h-2l-4-9v-3l-2-1-1-8-2-1-6-15v-2l-2-2 1-2-2-1-2-4-2-3v-3l-7-11v-3l-3-3v-3l-3-8-2-1v-4h-3l-1 2-1-5h-2l-1-4v-3l1-4-3-8-3-5v-2h-2l-4-6-11-4h-10l-5 1z" fill="#111D3E"/>
<path transform="translate(712,206)" d="m0 0h14l10 5 7 8 2 4v9l-5 8-7 7-9 5h-8l-9-4-6-7-4-9v-9l4-8 5-6z" fill="#FBAA3F"/>
<path transform="translate(322,196)" d="m0 0 5 1 7 8 1 2v11l-5 12-7 23-6 9-13 4-10 36-6 16h-2l-3 12-6 19-6 17-3 10-3 9-4 9-2 2-5 2 1-5 7-22 12-38 3-8 6-22 7-23 3-6 2-7 2-3h-2l1-2 7 2-2-4 7-3 5-6 6-13 5-19 1-11-3-3-5-3 1-2 5 2z" fill="#111D3F"/>
<path transform="translate(1085,881)" d="m0 0 8 1 7 4 8 7 1 3-5 2v7l-5-2-4-6-7-4-3 1 1 5h-3v2l-7 4 1-4-2-4v-4l-11 1-5 2-2 4-7 6-6 2-1 4-6 3-3 3h-2l-1 4-4 3h-3l-1 5-3 2 1 7-2 2 1 2-3 7 5 10 6 7-1 6-3 3h-5l-7-8-4-7v-13l5-10-2-6 4-8 7-7 13-10 12-12 10-8 8-5 7 1 1 1h5z" fill="#1D2C4D"/>
<path transform="translate(407,1055)" d="m0 0 4 2 6 7v3h2l7 11 1 4h2l4 5 5 5 3 4v2h2l5 5 4 5-3 7 4 2-2 8-3 1 1 7-6 7h-2l-2 7-3-2-2 7h-2l-1 4-4 2v2l-5 2v3l-6 2-4-3 3-3h2v-2l4-4h2l2-9h3v-3l2-1 1-5h2v-3l-2-4-4-6-2-5-2-2v-6l2 1 2 5 4-2-3-8-4-11-2-6v-3h-2l-7-18-4-8z" fill="#313244"/>
<path transform="translate(1218,866)" d="m0 0 4 2 3 3v2h2l6 8 8 4 2 5 6 3v2l2-1-4-4v-2h-2v-6l7 6 9 10 8 10 10 10 8 10 7 7 9 11 12 13 8 10-2 1-5-3 4 7v2h2l2 4-2 5-5-5-13-14-9-11-11-11-9-11-15-16-9-11-10-11-9-11-13-15z" fill="#2D3146"/>
<path transform="translate(1188,837)" d="m0 0h11l12 6 9 8 8 10 12 13 5 7 1 5-1 2h2l5 7h-3v-2l-5-1-2-4-2-1 1-2-6-2-5-4-3-4v-2h-2l-5-6-5-3-10-10-8-4h-7l-10 6-12 11-11 9-2 2-5 2h-3l-1-3-3-1v2l-5 3h-3l8-9 10-8 8-8 17-13z" fill="#1F2B45"/>
<path transform="translate(335,906)" d="m0 0h3l2 4h1l3 9v3 2l3 1v4l2 2 6 11v2l3 3 2 6 3 8 5 11v3l2 1-1 4 3 1 1 5 2 7h2l5 9 10 15 6 10 4 4 5 6v3h2l5 6 3 6 4 6 3 3v3l9 9 5 10 7 10 1 7h-3v-2h-2l-7-10-3-1-2-5h-2l-4-7-4-6v-2h-2l-3-5v-2l-3-1-3-3 1 3-5 1-1 2h-2l-4-5-1-18v-4l-3-7-2-2 1-2h-2l-9-14-1-4-6-5-3-8-7-14-5-13-5-11-2-5v-5l-4-6-3-7-6-15-4-7z" fill="#2C3145"/>
<path transform="translate(929,207)" d="m0 0 4 1 4 5 4 7 2 1 14 1 3 3-1 5-9 9-1 13-1 3-7 1-6-2-3-3-1-7-6 1h-10l-4-8 2-5 8-5 3-3 1-2 1-11z" fill="#F7746F"/>
<path transform="translate(1008,990)" d="m0 0h2l2 2 1 2 4 1-1 4-5 3-2 3h-2l-1 3-10 8-12 11-10 9-8 7-4 5-1 2v8l5 13 3 7-1 4h-3l-7-7-5-8-2-12 1-12 6-9 13-11 12-11 8-7 13-12z" fill="#1F2B48"/>
<path transform="translate(1181,73)" d="m0 0 9 1 7 5 4 7 2 2v12h-3l-2 6-5 7-4 2h-8l-5-3-5-6-3-7-1-6 2-9 4-6 5-4z" fill="#0E2935"/>
<path transform="translate(286,318)" d="m0 0 1 4-15 49-6 17-5 14-7 9-14 7-3 1h-15l-25-7-26-8-31-10-38-11-12-5-8-3-6-5 2-1h2l1-2 4 3 29 10 7 3 9 2 3 2 9 3 1 2 5-1 13 4 8 2 13 3 15 6 9 4v2l5 1 5 2 1-2 6 2 3 2 7-1 15-8v-5l4-5 2-2h2l5-3 5-16 3-9 4-11 3-8z" fill="#1D3683"/>
<path transform="translate(430,82)" d="m0 0 2 3-1 7-9 6-9 3h-2v23l-3 5h-4l-6-3-8-11-5-6h-17l-6-5-1-5 4-5 5-2 1 2h-2l2 4 3-2-1-3h4 8l8 7 4 1 1 3 6-3h2v-3h2l1-2h2l1-2h4l-1-5h2l1-5 4 1v2l6-2v-2z" fill="#F86F6D"/>
<path transform="translate(1066,167)" d="m0 0h7l3 3 5 1h3l2 5v56l2 16 5 13 2 3-1 3-4-6-3-8-3-14v-61l-11-1v57l2 18 5 16 8 13 7 8 10 8 13 7 9 3 11 2h20l12-3 12-5 13-9 3-1v-2l5-5 8-10 3-3 2-6h2l1-6 3-11h1l-1 10-5 12-9 13-9 9-11 8-10 6-19 6h-20l-15-3-12-5-12-7-10-9-8-10-6-12-4-10-3-14-1-26v-35l1-3-4 2-1 2-1 56h-1v-64l1-6z" fill="#2C3043"/>
<path transform="translate(505,1167)" d="m0 0 6 1 5 6v2l3 1h12l6 3 1 5-5 6-7 4-3 16-3 1-8-7-4-3-11-1-5-3-2-4 5-5 6-5 1-2v-10z" fill="#E15270"/>
<path transform="translate(1299,359)" d="m0 0h11l6 3 5 6 1 2v13l-6 8-8 4-10-1-6-4-4-5-2-4v-7l4-8z" fill="#F8F1EA"/>
<path transform="translate(1207,167)" d="m0 0h2l2 4-1 5-1 62-2 12-3 7-6 11-6 8-4 2v2l-6 3-8 2v-3l5-3 3-5 9-9 5-9 3-12 1-11 1-65z" fill="#0A272D"/>
<path transform="translate(99,980)" d="m0 0 3 3-1 8v7l4 10 6 7 5 7v2l3 1 4 8 1 3h2l1 3 3 3 6 10 1 3 4 3v3h3l6 11 3 4v3l4 2 2 5h2l5 10v8l-4-2-9-14-13-18-6-9-12-16-13-19-7-10-7-14-1-10 2-11z" fill="#202D4D"/>
<path transform="translate(372,1120)" d="m0 0 2 2-32 16-4 1-4 16-5 6-7 6-5 5-11 13-7 11 1 10-2 5-9 4h-2l-2-7v-9l8-11 13-13 9-10 7-11 9-11 4-8 10-5 14-5 9-4z" fill="#FEFCEF"/>
<path transform="translate(662,297)" d="m0 0h28l20 2 15 3 17 2 1 1 13 1 16 2 6 1v2l10 1 3 2-3 2-1 3 3-1v3l-8 1-58-9-11-1-10-2-10-1-2-1v-2l13 1 1-2 6 1v2l13 1 7 1v-2l2-2-15-3v2l4 2-3 1-6-2 3-3-13-3h-17l-1-1h-7l-4 2-10-1h-13l3-2z" fill="#0E37CB"/>
<path transform="translate(1208,238)" d="m0 0h1v11l-3 10-8 13-11 12-12 8-14 4-7 1h-12l-11-2-12-4-8-5-10-9-2-4 5 3h5l-2-6 7 6 9 6 10 4 6 1h16l12-3 8-4 5-3-2 4-4 3 6-2 5-2h3v-2l6-5 7-12 4-7 2-7z" fill="#2B3044"/>
<path transform="translate(634,473)" d="m0 0h113v59l-4 1-3-8-2 1v-34h3l-1-15h-102l-4-2z" fill="#5193E3"/>
<path transform="translate(442,330)" d="m0 0 3 2-4 1 1 2 5 2-4 1-5 2-16 2-3 1-1 2-41 6-12 1-6-1-4-1h-8l-4 1-2-1v-3h4v-2l14-3 14-2 2 2 4-2 14-3h5l4 1 7-1h15l1-4 9-1 7-1z" fill="#1338B2"/>
<path transform="translate(955,310)" d="m0 0 11 1 5 3 4 6 3 5 2 2v9l-13-1-27-3-5-2 3-1 3-9 10-9z" fill="#F7706C"/>
<path transform="translate(110,195)" d="m0 0 11 5 24 7 22 7 10 4-1 5-5 1-7-3-8-2-1-2-3 2-8-1-8-3-18-6-3-3-4 2-3 10-3 7-4 12-3 6-2 6h-2l2-10 9-31v-6l5-1h1l-2-5z" fill="#2B263B"/>
<path transform="translate(137,287)" d="m0 0 2 1-1 7-4 14-1 6 9 2 17 6-1 11-4 17-1 2h2l2 4h-4l-2 2-9-1-1-4 7-22 2-4h-7l-19-6-3-2 1-9 2-6 2 2h3l3-4 4-13z" fill="#292F4B"/>
<path transform="translate(343 1e3)" d="m0 0h7l1 2-4 2h-3v2l-5 2-5 3-6 1-2 2h-4l-8 4-10 4-11 3-6 4-10 3-13 6-19 6-9 4-2 2-11 3-5 2-6 2-10 4-7 1-1 3-2-4 7-4 20-7 18-7 9-4 14-6 17-6 26-11 21-8 10-4z" fill="#322941"/>
<path transform="translate(111,977)" d="m0 0 3 1 3 7 3 9 6 15 12 27 5 11-1 4-2-4h-2l-4-6v-2h-2l-2-5-3-2v-3h-2l-2-3v-3l-3-1-8-12-1-5h-2l-4-9v-7z" fill="#FDF5E7"/>
<path transform="translate(622,485)" d="m0 0h1v93l-3 4-21 1-7 1h-39l-5 1-13-1-6-1-1 105h-1v-110l94-1z" fill="#D3E8FC"/>
<path transform="translate(262,861)" d="m0 0h11l10 3 9 1 2 2 7-1h7l11 4 4 5v2h2l3 5 3 6 1 5-4-1-7-10-1-4h-4l-6-2h-13l-7 2-1-2h-6l-3-2-5-2h-15l1-2 4 1-1-3 2-2-7 1-9 4-5 3-3-1 5-5 8-4z" fill="#1F2C4A"/>
<path transform="translate(407,1055)" d="m0 0 4 2 6 7v3h2l7 11 1 4h2l10 14 4 7 2 5v6h-2l-1 9-4 3-4-7v-2h-2l-4-10-4-11-2-6v-3h-2l-7-18-4-8z" fill="#FDF1E1"/>
<path transform="translate(207,280)" d="m0 0h3l2 4 3-4 1 6-3 12 9 2 5 2 9 2 4 2-1 9-5 19-3 7-4-2v-7l1-4 1-6h-1v-6l2-5-17-4-12-5 2-10z" fill="#1A213E"/>
<path transform="translate(356,1186)" d="m0 0 2 1-4 4-5 2-3 3-4 1-2 3-10 3-1 3-9 2h-4l-1 4-12 6-7 2-3 3-8 1-3 2-10 1-11 2-5 2-2-2 9-4 8-4 14-5 20-9 25-10 10-5z" fill="#2E2736"/>
<path transform="translate(334,972)" d="m0 0 2 4-6 1-4 2-3 2-2-1v2l-7 3h-6v2l-8 2v2l-3 2h-4v2l-9 2-1 2-17 5-6 2-7 3-3 2-4 2h-3v2l-10 3-9 4-4 1-10 4-9 2-3 1 2-5 17-7 20-7 14-7 20-7 23-9 9-3v-2l17-6 10-4z" fill="#362B42"/>
<path transform="translate(634,302)" d="m0 0 2 2-18 3-2 1-6-1-1 2h-3l-2-1-16 3-4 2h-19l-3 1-18 2-4 2-10 1v2h-14v2l-7 1-3-1-2 2v-3l-4-3 3-2 24-4 53-7 20-2v2l10-2z" fill="#133AC4"/>
<path transform="translate(929,207)" d="m0 0 4 1 4 5 4 7 2 1 10 1-2 5-4 6-2 1-1 6-13-1-5-3-4-1-4-4 1-3 4-2 2-4 1-11z" fill="#E05070"/>
<path transform="translate(1006,354)" d="m0 0h2l1 157v89l-1 35-5 37h-1v-11l3-21 1-169z" fill="#4B90E3"/>
<path transform="translate(169,1110)" d="m0 0 5 2 8 19 5 10 5 12v3h4l1 4-1 3 8 19 4 9 2-2 5 10v5l-2-3-2-7h-2l6 15 2 10v3h2v2l-3-1-8-16-12-29-11-26-11-28-5-11z" fill="#121E3F"/>
<path transform="translate(627,130)" d="m0 0 7 1 5 5 3 4v7l-4 6-5 4h-7l-7-4-5-9 1-7 10-6z" fill="#F8736F"/>
<path transform="translate(299,948)" d="m0 0 3 1v4l-4 1-2 2-7 1v2l-12 3-8 3-1 2-10 2v2l-7 3-19 7-15 5-12 5-6 3-2-1v2l-14 5-4-1 1-3 16-6 14-6 10-4 16-6 14-6 9-3 7-4 12-4 11-5z" fill="#372B41"/>
<path transform="translate(1118,79)" d="m0 0 4 1 5 7 1 4v8l-6 11-5 5-3 1h-7l-6-3-4-5-2-9 1-6 3-4 2 1v7l6 8 5 1 5-6 1-8-3-7-5-2 3-2z" fill="#0D2936"/>
<path transform="translate(103,593)" d="m0 0h8l7 6 2 4v7l-4 7-6 4-9-2-5-5-1-3v-8l4-7z" fill="#F8746D"/>
<path transform="translate(748,566)" d="m0 0h92l3 2v133l-2 2-11 1h-44v-1l46-2 7-2 1-2v-128l-1-1-91-1z" fill="#3F8AE5"/>
<path transform="translate(1139,876)" d="m0 0m4 0 4 1v3l6-2-6 7-14 12-5 5-5 4h-7l-5 1-3-1-1-2h-3l-1-6 7-3 2 2 4-1 15-13 5-5 2 1v1l2-2h3z" fill="#1E2C4A"/>
<path transform="translate(816,312)" d="m0 0 17 2 49 8 36 5 17 2 5 2 45 5 8 1v2l3 1v1l-18-1-1-1-13-2-27-3-58-9-28-4-21-4-13-1z" fill="#254698"/>
<path transform="translate(274,783)" d="m0 0 5 1 8 5 9 3 1 2-7 11-3 6-7-1-16-8 2-5 4-2 2-4z" fill="#E0516F"/>
<path transform="translate(175,253)" d="m0 0 5 1 12 5 26 7 2 1-1 8-3 8h-2l-2 2-4-3 1-10-30-8-1 3-3 3-2 3v-3l-3-1 2-12z" fill="#101C3D"/>
<path transform="translate(334,1046)" d="m0 0h4l-1 3-7 4h-5v2l-15 6-12 5-14 5-4 2h-3v2l-16 6-24 8-7 3h-6v-2l16-7 16-6 20-7 3-1v-2l20-7 15-6z" fill="#342A42"/>
<path transform="translate(1206,846)" d="m0 0h3l2 3 5 2 1 3 4 2 6 4 7 7 9 11 3 7-1 3h2l5 7h-3v-2l-5-1-2-4-2-1 1-2-6-2-5-4-3-4v-2h-2l-5-6-5-3-10-10z" fill="#101933"/>
<path transform="translate(209,1194)" d="m0 0h2l3 7 3 1 3 9v3h2l4 9 4 3 4-1 1 4v2l2 1v-2h5v2l15 2 3 1v3l3 1-7 2-14 1-12-4-8-6-5-7 2-1v-2h-2l-2-8-1-5-5-13z" fill="#202D4B"/>
<path transform="translate(398,1028)" d="m0 0h2l6 8 1 4h2l5 6 3 6 4 6 3 3v3l9 9 5 10 7 10 1 7h-3v-2h-2l-7-10-3-1-2-5h-2l-4-7-4-6v-2h-2l-3-5-2-6-4-4v-5l-3-3v-2h-2l-5-12z" fill="#1E2B46"/>
<path transform="translate(364,337)" d="m0 0 9 1-3 3-7 2-10 1-8 1v2h-4v3h5l1-1h13v1l5 1-3 2-14 2v41h-1l-1-18v-12l-1-5-10-2v62h-1v-74l2-4z" fill="#113ACA"/>
<path transform="translate(436,1144)" d="m0 0 3 3-1 5-3 6-8 9-8 6-29 12-18 8-14 6-1-4h2l1-3 11-4v-2l8-2 12-5 5-2h3l1-2 10-5h3l-2-4 3-1 3 1 5-1v-3l5-2v-2l4-3 1-3h2l1-7z" fill="#131D3D"/>
<path transform="translate(192,344)" d="m0 0 3 2-1 10-4 14-2 2-8-1-17-5-18-6-2-1v-2l8 1 3-3v2l2-1-1-2 10 2 7 2 11 5 1-7h3 1l2-6v-5z" fill="#282E49"/>
<path transform="translate(133,151)" d="m0 0 6 1 1 1-1 9-9 28-3 7-7-1-2-3 4-16 6-17z" fill="#E1556C"/>
<path transform="translate(359,1073)" d="m0 0h6l-1 2-10 5-5 2-11 5-9 2-4 3-7 2-6 3-5 2-2-1v2l-14 5-6 3-11 4-5 1-1 2-7 2-6 3-9 3-1-4 10-4 14-6 11-5 17-6 9-4 14-5 5-3 17-6 10-4z" fill="#3A2D41"/>
<path transform="translate(176,164)" d="m0 0h6l2 1-1 8-8 26-4 10-4 1-6-2 3-12 11-31z" fill="#E3586B"/>
<path transform="translate(322,1215)" d="m0 0 7 1-5 5-11 8-14 10-9 3h-20l-3-1v-3l-3-1 21-4 13-4 17-9h2v-2z" fill="#1E2D4F"/>
<path transform="translate(219,177)" d="m0 0 7 1 1 5-9 31-3 9-1 1h-5l-3-2 1-10z" fill="#E3586B"/>
<path transform="translate(198,1150)" d="m0 0 2 3 8 19 6 14 5 12 8 20 4 5 2 2v2l-4-1-5-4-2-5v-3h-2l-4-12-6-11-3 1-10-25-2-4 1-5h-2v-2h-2l1-4h3z" fill="#252D46"/>
<path transform="translate(198,170)" d="m0 0 6 1 1 4-6 23-6 18-5 1-4-2 1-10 12-34z" fill="#E3586B"/>
<path transform="translate(156,156)" d="m0 0 5 2v7l-11 38h-6l-4-2 1-8 9-26 5-10z" fill="#E3586B"/>
<path transform="translate(263,190)" d="m0 0 8 2-1 7-9 30-3 8-8-1-1-5 12-36z" fill="#E2576B"/>
<path transform="translate(284,198)" d="m0 0 8 1 1 3-11 36-1 6h-6l-3-2 1-9 10-33z" fill="#E55A6B"/>
<path transform="translate(241,184)" d="m0 0h7l1 1-1 8-9 29-4 8-7-1 1-9 11-35z" fill="#E4596B"/>
<path transform="translate(1008,355)" d="m0 0h1l2 50-1 207-1 23h-1z" fill="#0E37CE"/>
<path transform="translate(306,204)" d="m0 0h6l1 1v8l-8 28-3 9-4 1-4-3 1-9 9-31z" fill="#E55B6A"/>
<path transform="translate(733,486)" d="m0 0h1v91l94 1-1 2-25 1-10 1-50 1-7-1-2-2z" fill="#CCE4FC"/>
<path transform="translate(1304,349)" d="m0 0 9 1 8 4 7 8 4 8 1 3v8l-2 6h-3l-1-6 3-2v-5l-3 3-2-9-3-3v-2l-4 2-5-4-3-1-11-1 5-6h-5l-9 5-5 5-1-2-2-1 4-5 8-4z" fill="#1E3887"/>
<path transform="translate(112,970)" d="m0 0 5 4 2 9h2l9 21 5 13 3 7 3 9 5 12-1 5h-2l-11-25-8-19-5-12-3-9-5-13zm21 38 2 1-1 3z" fill="#2E273A"/>
<path transform="translate(388,1100)" d="m0 0 3 2-2 2-8 1-6 4-10 4-2 1v-2h-3v2l2 1h-3l-2 2-6 2-2-1-1 2-7 2-8 4-10 4-10 3-4 3-6 1-2 2-9 2v-4l17-7 11-5 12-4 8-3 20-8 7-3 16-6z" fill="#372C41"/>
<path transform="translate(286,318)" d="m0 0 1 4-15 49-6 17-5 14-7 9-14 7-3 1h-12l1-2 7-1 15-8v-5l4-5 2-2h2l5-3 5-16 3-9 4-11 3-8z" fill="#1C3483"/>
<path transform="translate(671,1289)" d="m0 0h7l5 3 3 4v8l-3 5-3 2h-9l-6-7-1-5 4-8z" fill="#FCAD40"/>
<path transform="translate(237,167)" d="m0 0 11 3 21 7 30 9 19 6 6 3-2 1 2 4-1 2-5-1-2 1-3-2-10-5-5-1-1-5-5-1-3-1v-2h-7l-12-4-17-5-13-4z" fill="#1C3582"/>
<path transform="translate(1302,366)" d="m0 0 9 1 4 5v9l-4 5-3 2h-8l-5-6-1-8 3-6z" fill="#30334E"/>
<path transform="translate(431,328)" d="m0 0 13 1 1 2-13 2-7 1-1 4h-15l-7 1-9-1-16 3-3 2-3-2v-2l-2-2 16-3 31-4z" fill="#1039CC"/>
<path transform="translate(200,231)" d="m0 0 11 2 12 4 1 1 7-1 4 1h3l4 2-1 2 8 1v2l15 5h6l1 3 6 1 6 2-4 1-6-2v2l-9-2-25-8-21-6-9-3-11-4 2-1z" fill="#222B52"/>
<path transform="translate(1221,165)" d="m0 0 2 2 8 1v1l-6 1 2 5h-2l1 2v45l-2 25h-1v-69h-12l-1 56h-1v-58l2-6 9-3z" fill="#2B3044"/>
<path transform="translate(122,967)" d="m0 0 3 4 4 10 10 24 7 18 5 11 3 7-1 4-2 1-4-7-1-4-4-4-2-8-1-1-1-3-1-5-4-10v-2l-3 1-1-3 1-3-5-12-1-6-3-4z" fill="#2C2741"/>
<path transform="translate(239,873)" d="m0 0h2v2l-6 5h-2l-1 3-2 1-1 3-5 2h-3v2l-4 2-1 2-7 3-11 7-1 3-8 3-6 2-8 4-9 3-6 1v2l-13 5h-4l1-3 29-12 21-9 11-8 14-9 14-10z" fill="#152147"/>
<path transform="translate(368,1084)" d="m0 0 1 2-7 8-5 7v3l3 1v2h3v2l-7 4-7 2v-2l-4-2-1-7 4-12 13-5z" fill="#FEFCEE"/>
<path transform="translate(1188,837)" d="m0 0h11l12 6 9 8 4 5v2l-4-2-5-5-5-2-1-3-2 1v5l-4 1-6-3-9-1 1-9h-2l-2 4-7 1v-2z" fill="#121B38"/>
<path transform="translate(1182,81)" d="m0 0h5l5 6 1 3v8l-3 5-3 3h-6l-1-3h-2l-2-7 1-9 2-3h2z" fill="#6A7F4B"/>
<path transform="translate(1108,83)" d="m0 0h6l4 5 1 9-3 6-5 4-5-2-4-5-1-2v-7z" fill="#65804A"/>
<path transform="translate(1100,910)" d="m0 0 2 2-4 2-1 3h-2l-1 4h-3l-2 4h-2v3l-6 4h-2v2l-5 3-3 6-3 1-3 3h-2v2l-4 4h-3v2h-3v2l-9 6-4 4-4 1 2-4 8-8 9-7 3-1 2-4 14-12 11-9 7-7z" fill="#181E3F"/>
<path transform="translate(364,1048)" d="m0 0h2l1 12 4 4v2h3v2l-8 4-5 1v-2l-7-2-2-2 1-8 2-7z" fill="#FEFBED"/>
<path transform="translate(642,1056)" d="m0 0h7l14 6 19 10 4 1v2l-6 4-6-1-18-11-13-7z" fill="#F6F9FC"/>
<path transform="translate(78,322)" d="m0 0h2v2h2l-1 7-1 15 4 11v3h2l4 5 3 2 11 5-1 2-19-7-5-5-4-8-1-5v-12z" fill="#93C0F9"/>
<path transform="translate(183,399)" d="m0 0 7 1 28 9 13 2 10-3 6-4 2 1-1 4-15 8-7 1-8-4-4 1-8-3-3-3-6-2-14-6z" fill="#111E43"/>
<path transform="translate(967,797)" d="m0 0 1 4-2 4-4 18v3l-2 1v2h-2l1 3-4 2-1 7-4 4-2 4-4 4-1-2 1-8 7-15h2l1-5 12-25z" fill="#1439B4"/>
<path transform="translate(111,977)" d="m0 0 3 1 3 7 3 9 3 10-6 1-9-4-3-5v-7z" fill="#FDF8F2"/>
<path transform="translate(1181,73)" d="m0 0 9 1 3 2v3l-6 3h-5l-4 5-2 16-5-1v-9h-2v-9l4-6 5-4z" fill="#111E3B"/>
<path transform="translate(1143,686)" d="m0 0 7 1 5 4v7l-5 5-2 1h-6l-5-3-2-4v-5l5-5z" fill="#F9816D"/>
<path transform="translate(272,886)" d="m0 0 2 2-8 5-5 5v5l6 2 15 7 8 2-2 3-10 4-4 1-4-9-4-5-9-4-2-2v-9l11-5z" fill="#FEF9EC"/>
<path transform="translate(1175,845)" d="m0 0h2l-1 7-5 1-1 3-6 5-2 2-6 3-1 3 4 2h-2v5l-2 2-5 2h-3l-1-3-3-1v2l-5 3h-3l8-9 10-8 8-8z" fill="#131E42"/>
<path transform="translate(713,298)" d="m0 0 16 2 83 11 4 1 1 3-12-1-3-1-24-3-18-2-4-1-13-1-1-1-24-3-3-1v-2z" fill="#1E3B90"/>
<path transform="translate(104,986)" d="m0 0 2 1v9l3 7v2h2l4 8 6 9 2 1 2 6h2l1 3 3 2 1 5h2l3 5v3h-2l-3-3-4-7-6-9-6-4-4-6-2-5-3-1-4-6 1-3-2-5v-8z" fill="#372E39"/>
<path transform="translate(912,328)" d="m0 0h16l10 2 2 1 45 5 8 1v2l3 1v1l-18-1-1-1-13-2-27-3-25-4z" fill="#1B348C"/>
<path transform="translate(1015,954)" d="m0 0 4 1 4 6 5 6-1 6-3 3h-5l-7-8-4-7v-6l3 2h3z" fill="#1E2D52"/>
<path transform="translate(335,906)" d="m0 0h3l2 4h1l3 9v3 2l3 1v4l2 2 6 11v2l3 3 2 6 3 8 5 11v3l2 1-1 4 3 1-2 3-7-14-1-5h-2l-4-12-8-14-3-7-6-15-4-7z" fill="#1D2B46"/>
<path transform="translate(283,250)" d="m0 0 9 2 10 4 6 1-2 3-4 1 1 3-7-1-3 1-17-5-3-2v-2l7 1-3-2 5-1z" fill="#2C3048"/>
<path transform="translate(316,876)" d="m0 0 4 2 6 10 4 5 2 7-1 3 3-1v5l8 14 5 13 6 12 1 6 2 8h-2l-8-17-10-26-5-10-3-9-6-12-6-7z" fill="#302C37"/>
<path transform="translate(1315,966)" d="m0 0 10 5 9 12v18h-3l-2-6-3-2-3-7-1-2 1-5-1-3h-2l-5-8z" fill="#101A36"/>
<path transform="translate(1086,882)" d="m0 0h7l7 4 8 7 1 3-5 2v7l-5-2-4-6-5-3-1-9h-3z" fill="#141C39"/>
<path transform="translate(273,787)" d="m0 0 4 1-6 8v4h2v2l5 1 6 2 2-2 3-10 3-2 4 1 1 2-7 11-3 6-7-1-16-8 2-5 4-2 2-4z" fill="#F7706D"/>
<path transform="translate(179,917)" d="m0 0 7 1 3 3-7 3-12 5-7 2-5 1-9 3-3-1 5-5 11-5 6-2 7-3z" fill="#2D3046"/>
<path transform="translate(1197,253)" d="m0 0 3 4v8l-7 10-3 3h-2v2l-6 3-8 2v-3l5-3 3-5 9-9 5-9z" fill="#111C38"/>
<path transform="translate(937,341)" d="m0 0 11 1 3 2v-3h7l-1 2-4-1 2 2 24 2 5 1v1l24 3v2l-4 1-39-5-26-4-7-2v-1z" fill="#1039CA"/>
<path transform="translate(130,136)" d="m0 0 8 1 25 7 37 12 11 3-1 2-10-2-27-7-17-6-11-3-1-2-7-1v-2l-7-1z" fill="#1C3688"/>
<path transform="translate(898,328)" d="m0 0 14 1 31 5 21 2 13 2v3h-10l-5-1h-14l-9-2v-2h-7-2l-6-1v-2l-14-1-3-1h-4v-2h-5z" fill="#0E37CE"/>
<path transform="translate(207,280)" d="m0 0h3l2 4 3-4 1 6-3 12 3 1-4 2v3h-7l-4-2 2-10z" fill="#262948"/>
<path transform="translate(1115,281)" d="m0 0h6l12 5 6 1h26l-1 3-6 2h-24l-10-3-1-3-4 1-4-3z" fill="#101C3C"/>
<path transform="translate(1153,319)" d="m0 0h1v41l-2 5h-2l-1-4-1-27 1-13z" fill="#121C34"/>
<path transform="translate(99,980)" d="m0 0 3 3-1 8v7l4 10 4 5 1 5-5-1-4-7-3-1-3-7-1-10 2-11z" fill="#1C3582"/>
<path transform="translate(206,1172)" d="m0 0h2l6 14 5 12 8 20 4 5 2 2v2l-4-1-5-4-2-5v-3h-2l-4-12-4-7-3-10-4-11z" fill="#3A2C3D"/>
<path transform="translate(959,1054)" d="m0 0 2 4 5 13 3 7-1 4h-3l-7-7-5-8-1-5 2-1 2-3z" fill="#2C304A"/>
<path transform="translate(518,1177)" d="m0 0h13l6 3 1 5-5 6-7 4-2 11h-2l1-4h-2l1-8 2-4h3l-3-9h-3v-2h-3z" fill="#F87A74"/>
<path transform="translate(1088,1046)" d="m0 0 5 1v3l5 1 7 8 8 9h5l-2 5-5-1-6-7-2-1 1 4-4-2-3-5-4-4-6-8z" fill="#303048"/>
<path transform="translate(1008,990)" d="m0 0h2l1 3-7 8-9 5-1 2-3 2-1 4-2 1 1 2-10 5-6 4-2-1 8-8 4-5 8-7 13-12z" fill="#141D42"/>
<path transform="translate(305,909)" d="m0 0h8v2l3 1v2h-3v2l-3-1h2v-2l-5 2-9 3-13 4-10 4-2-1v-3l11-5 14-5z" fill="#342B39"/>
<path transform="translate(1066,167)" d="m0 0h7l3 3 4 3-6 3-4 1-5 3-1 2-1 56h-1v-64l1-6z" fill="#1B357A"/>
<path transform="translate(150,329)" d="m0 0 1 4-1 13h3l1 5-1 2h2l2 4h-4l-2 2-9-1-1-4 7-22z" fill="#283157"/>
<path transform="translate(315,917)" d="m0 0h2l1 14 5 7-2 3-5 1-1-3h-2l-4-7-1-9 3-3z" fill="#FEFAEC"/>
<path transform="translate(1304,360)" d="m0 0h9l7 6 2 4v11l-7-3-2-8-5-3-4-1v-2h-2z" fill="#FAF9F8"/>
<path transform="translate(1148,316)" d="m0 0 6 1 3 2h-2v45h-1l-1-44-3 1-1 13h-1l-2-6-3 6-1 5h-1l-2-11v-9l4 4 2-6z" fill="#25336D"/>
<path transform="translate(1254,909)" d="m0 0 4 2 9 9v2h2v2h2l3 3h2v2l4 2 1 5 7 3 1 2-3 1 5 5v2l3 1 7 8 4 4 3 5 3 3-1 2-13-14-7-8-12-13-7-8-9-10-8-9z" fill="#2C2536"/>
<path transform="translate(107,203)" d="m0 0 7 1-4 7-2 7-3 7-4 12-3 6-2 6h-2l2-10 10-34z" fill="#1D3684"/>
<path transform="translate(470,926)" d="m0 0 4 2 9 9 7 8 2 4 4 2 8 8v2l4 2 4 4v2l4 2 6 4 12 12-1 2-14-12-13-12-24-24-7-8z" fill="#EAF7FD"/>
<path transform="translate(192,344)" d="m0 0 3 2-1 10-4 14-2 2h-4v-2h-3l3-14h3 1l2-6v-5z" fill="#282844"/>
<path transform="translate(122,967)" d="m0 0 3 4 4 10 10 24-1 4-3-1-2-6-3 1-1-3 1-3-5-12-1-6-3-4z" fill="#2E2740"/>
<path transform="translate(234,1022)" d="m0 0 3 1-1 3-7 4-12 4-10 4-7 2-1-2 2-2h5l1-4 9-2v-2l10-4 3-1z" fill="#2F2B46"/>
<path transform="translate(183,1116)" d="m0 0 4 4 8 20 3 6v7h-2l-2 2-4-4-1-10 1-1-1-6h-2l-1-9-3-6z" fill="#3A2B3F"/>
<path transform="translate(170,264)" d="m0 0h1v5l3 1 2-5 2 2-1 6-3 12-1 2-6-1-4-3h2l2-9z" fill="#222B4A"/>
<path transform="translate(137,287)" d="m0 0 2 1-1 7-4 14-1 6 3 1-2 1v2l-5-1v-2h3l-1-2-7 1 1 4-4 1 1-9 2-6 2 2h3l3-4 4-13z" fill="#29345C"/>
<path transform="translate(500,1185)" d="m0 0h1v5 2l2 3 7 3 2 6-4-2-11-1-5-3-2-4 5-5z" fill="#F8726A"/>
<path transform="translate(1139,876)" d="m0 0m-1 1m-2 1 2 1-3 4h8l-3 5-5 5-6 3h-3l2-1v-2l-5 1-3-1z" fill="#1C294B"/>
<path transform="translate(227,319)" d="m0 0h3l-1 12-1 5-1 3h2l1-2 1 6-4 9-4-1h3l-1-3-5-1v-2l2-1-1-3z" fill="#2D3354"/>
<path transform="translate(662,297)" d="m0 0h28l20 2 19 4v1l-11-1v2l4 2-3 1-6-2 3-3-13-3h-17l-1-1h-7l-4 2-10-1h-13l3-2z" fill="#0E37CD"/>
<path transform="translate(239,873)" d="m0 0h2v2l-6 5h-2l-1 3-2 1-1 3-5 2h-3v2l-4 2-1 2-7 3-8 5-2-1 4-5 15-9 12-9z" fill="#111D41"/>
<path transform="translate(373,759)" d="m0 0 3 1 5 15 8 20 3 9-4-1v-3l-2-1-6-16-2-3v-5l-3-1v-4l-3-5h2l-2-5z" fill="#173CAF"/>
<path transform="translate(120,974)" d="m0 0 5 5 2 8 4 10-1 4 3 1 2 4-1 3-2 2-4-9-7-16v-3h-2l-1-2v-6z" fill="#26315C"/>
<path transform="translate(262,861)" d="m0 0h11l10 3v3l-12-1h-9l-11 4-6 4-3-1 5-5 8-4z" fill="#162043"/>
<path transform="translate(153,322)" d="m0 0 6 1-1 11-3 12h-3l-3 1 1-14 2-6h2z" fill="#2A263A"/>
<path transform="translate(257,243)" d="m0 0 10 2 13 4 3 1-1 4h-12v-4l-6 1-12-4 1-3zm-3 2 2 2v-2z" fill="#292539"/>
<path transform="translate(1059,926)" d="m0 0h3l-1 3-11 9-13 12-4 2-5-1 5-5 5-3 2-3h2l2-4 7-4h4l2-4h2z" fill="#131D40"/>
<path transform="translate(1143,876)" d="m0 0 4 1v3l6-2-6 7-14 12-5 5-2 1-1-6 12-6 4-7-6-1 5-5h3z" fill="#2B3043"/>
<path transform="translate(1107,270)" d="m0 0 7 6 5 5-3 1 1 2 4 2h2l1 2 3 1-1 3-10-4-4-3-5-2-8-8 1-2 4 3h5z" fill="#1F2C46"/>
<path transform="translate(109,235)" d="m0 0 1 2-4 18-3 3-1 7-2 3h-4l3-11 6-21z" fill="#8EBBF8"/>
<path transform="translate(1139,1055)" d="m0 0 5 3 5 5 5 6h3v2l4 1-1 2h-2l-1 2h-2l-1-3-4-1-6-5 1-5h-3v-2l-4 2-9 2 5-5z" fill="#2D3144"/>
<path transform="translate(346,1012)" d="m0 0 5 2v3l-13 5-8 3-4-1-5 1 4-4h3l2-2 7-3z" fill="#2F2840"/>
<path transform="translate(286,318)" d="m0 0 1 4-15 49-6 17-2-1 2-10 3-9 4-11 3-8z" fill="#1D3B90"/>
<path transform="translate(474,932)" d="m0 0 7 6 9 10 13 13-1 3-2-3-5-2-13-13-9-11z" fill="#1D388A"/>
<path transform="translate(535,988)" d="m0 0 6 4 14 10 13 10 13 8 4 4-2 1-21-14-19-14-9-7z" fill="#E2F1FD"/>
<path transform="translate(289,1138)" d="m0 0 4 1-3 1-3 4-14 5-6 3-9 3-3-3 8-4 12-4 9-4z" fill="#3F3047"/>
<path transform="translate(1320,363)" d="m0 0h2l4 5 2 8 2-3 1 1-1 7h-2l-3 6-3 2-1-19-2-6z" fill="#121E41"/>
<path transform="translate(297,875)" d="m0 0h13l4 2 1 3-7 1h-11l-11 1 1-3z" fill="#FCF5E6"/>
<path transform="translate(1168,87)" d="m0 0 2 4-1 2h2l1 9 5 2 1 3 5 2 1 3 5 2v1h-8l-5-3-5-6-3-7-1-6z" fill="#1D305F"/>
<path transform="translate(643,297)" d="m0 0h5l-3 1v3l-10 2-35 3v-2l10-2 29-4z" fill="#1F3C8E"/>
<path transform="translate(159,930)" d="m0 0 4 1-12 5-16 7-7 7-4 1-3 3 1-5 7-6v-2l10-3 3-3 10-2z" fill="#141D3D"/>
<path transform="translate(1066,178)" d="m0 0h3v10l-2 8-1 1-2 18h-1v-33z" fill="#0F1933"/>
<path transform="translate(1179,277)" d="m0 0v3l-5 4 6-2 4 1-11 7-5 2h-10l4-2 3-3h-5l4-2 9-4z" fill="#1D2B4C"/>
<path transform="translate(827,579)" d="m0 0h1v108l-1 1h-7l3-2 3-1z" fill="#F5FEFE"/>
<path transform="translate(248,247)" d="m0 0 9 1 7 2h6l1 3 6 1 6 2-4 1-6-2v2l-9-2-20-6z" fill="#1F2D61"/>
<path transform="translate(88,265)" d="m0 0h1v8l-2 6-3 13-3 1v6l-3 5-3 9-1-4 12-39z" fill="#1D3788"/>
<path transform="translate(769,307)" d="m0 0h13l30 4 4 1 1 3-12-1-3-1-24-3-9-2z" fill="#1C3789"/>
<path transform="translate(283,250)" d="m0 0 9 2-2 3 3 1v2l-4 1v3l-10-2-6-3v-2l7 1-3-2 5-1z" fill="#232B45"/>
<path transform="translate(1201,168)" d="m0 0h1l2 21v22l-2 12h-1z" fill="#29314E"/>
<path transform="translate(343,980)" d="m0 0 5 3 3 12 2 9h-5l2-2-4-4-3-9-2-8z" fill="#FEFAEB"/>
<path transform="translate(1085,194)" d="m0 0h1v38l2 16 5 13 2 3-1 3-4-6-3-8-3-14v-38z" fill="#2C2A3B"/>
<path transform="translate(956,1039)" d="m0 0 4 1v4l-5-1 3 6v10h-2l-2 3h-2l-1-9 1-10z" fill="#101C38"/>
<path transform="translate(346 1e3)" d="m0 0h7v3h2l1 7-2 2h-3l-3-3-7 2-4 2-4-1 2-2 2 1 1-3 6-1v-2l6-3z" fill="#2C3043"/>
<path transform="translate(776,310)" d="m0 0 15 3-3 3-1 3 3-1v3h-4v-2l-21-3v-1h10v-3l-2-1z" fill="#1337B1"/>
<path transform="translate(356,1011)" d="m0 0 2 4 2 6 1 7 4 8h-5l-4-5-2-14z" fill="#FEFEF2"/>
<path transform="translate(1218,866)" d="m0 0 4 2 3 3v2h2l6 8 2 1 3 5 12 14 4 5-1 2-12-13-9-11-13-15z" fill="#2B2536"/>
<path transform="translate(123,207)" d="m0 0 3 2 3-1 3 2 7 1 12 4-1 4-10-2-6-3-13-4v-2z" fill="#1C2F6A"/>
<path transform="translate(388,1100)" d="m0 0 3 2-2 2-8 1-6 4-10 4-2 1v-2l-3-1 3-3 20-7z" fill="#2C263A"/>
<path transform="translate(335,906)" d="m0 0h3l2 4h1l3 9v3 2l3 1v4l2 2 2 4v6h-2l-4-9-6-15-4-7z" fill="#2B3044"/>
<path transform="translate(237,167)" d="m0 0 11 3 21 7 4 1 1 3-9-1-20-7-6-2z" fill="#1C3685"/>
<path transform="translate(329,951)" d="m0 0 4 2 4 9 3 9-5-1-5-6z" fill="#FFFFF3"/>
<path transform="translate(196,343)" d="m0 0 13 4 8 2-1 2-14-1-3 3h-2l-1 5-2-3z" fill="#91BEF9"/>
<path transform="translate(203,292)" d="m0 0h3l3 2 4 1 1-3-1 6 3 1-4 2v3h-7l-4-2z" fill="#1E2545"/>
<path transform="translate(200,231)" d="m0 0 11 2 12 4 2 5-7-1-9-3-11-4 2-1z" fill="#162A66"/>
<path transform="translate(966,334)" d="m0 0 19 2 8 1v2l3 1v1l-18-1-1-1-13-2v-2z" fill="#213E90"/>
<path transform="translate(192,334)" d="m0 0 1 4 2 2 1 7-3 2-1-4-4 12-4-1 3-11z" fill="#302941"/>
<path transform="translate(416,330)" d="m0 0h8l-1 2-23 3-18 3h-7v-2l10-2z" fill="#1E3989"/>
<path transform="translate(404,1065)" d="m0 0 2 2 4 9v2l2 1 3 8 2 5 2 8h-3l-4-10-3-5-5-17z" fill="#2C3144"/>
<path transform="translate(160,1062)" d="m0 0 4 4 6 13-1 4-7-5-3-9v-6z" fill="#33293F"/>
<path transform="translate(545,589)" d="m0 0h9l4 1v4l-8 3-5-1-3-3 1-3z" fill="#F5FEFE"/>
<path transform="translate(1111,1015)" d="m0 0 5 5v5l-3 2-5-1-3 3-2-1 3-10 4 2-1-4z" fill="#353549"/>
<path transform="translate(212,339)" d="m0 0 11 5-3 1v2h5l1 4-9-1-7-3z" fill="#222440"/>
<path transform="translate(816,312)" d="m0 0 17 2 29 5v1l-12-1-33-3z" fill="#244BB6"/>
<path transform="translate(175,253)" d="m0 0 5 1 6 3-1 2h-7l1 3-5 3-2 4-1-8 3-7z" fill="#1F2F5C"/>
<path transform="translate(267,1110)" d="m0 0 2 1-1 4-7 2-6 3-9 3-1-4 10-4z" fill="#362B43"/>
<path transform="translate(237,236)" d="m0 0 6 1 14 5 1 3-5-1-1 3-5-2-3-1-5-1 2-3-4-2zm17 9h2l-1 2z" fill="#342B42"/>
<path transform="translate(354,1194)" d="m0 0h5l-2 1 1 4-16 9-3 1 2-4 4-3 2-4 4-1z" fill="#34283E"/>
<path transform="translate(67,333)" d="m0 0h2l1 10v3h-2v5h2l1 6v5l-3-4-4-12 2-10z" fill="#1D3383"/>
<path transform="translate(107,976)" d="m0 0h2l-1 10-4 1-1 3v8l2 7-3-3-2-4v-10l4-9z" fill="#161D34"/>
<path transform="translate(154,216)" d="m0 0 5 3 9 3 12 2v4l-9-2-21-6 4-2z" fill="#1A2F62"/>
<path transform="translate(1153,360)" d="m0 0 2 4 4 10 4 5 2 1v2l-6-2-2-3v-3l-4-1-4-5-1-5h2v2h2z" fill="#313449"/>
<path transform="translate(1299,352)" d="m0 0h6v3l-5 3-1 2h-6l-4 1-1 3h-2l-1 3v-5l8-7z" fill="#0F1A36"/>
<path transform="translate(135,1031)" d="m0 0 2 3 6 13-1 4-2-4h-2l-4-6v-2h-2l-2-6 5 1z" fill="#FAE9D9"/>
<path transform="translate(239,935)" d="m0 0h1v5l-9 2-2 2-9 3-5 1v-3l19-8z" fill="#332949"/>
<path transform="translate(411,1163)" d="m0 0 2 1v2l-13 6-7 4h-6l1-3 18-8z" fill="#2F2B37"/>
<path transform="translate(177,362)" d="m0 0 5 1 1 4-2 3 3 1-8-1-7-2-1-4h6z" fill="#2C2C4A"/>
<path transform="translate(1008,990)" d="m0 0h2l1 3-7 8-9 5-1 2-3-1 9-9 4-5z" fill="#181E38"/>
<path transform="translate(718,303)" d="m0 0 11 1 6 2-4 2v2h-10l-5-1v-2h5l-3-2z" fill="#1337B1"/>
<path transform="translate(750,308)" d="m0 0h7l9 2v2h-4l-1 3-13-1z" fill="#1438B1"/>
<path transform="translate(1090 1e3)" d="m0 0 7 2 5 2 4 5-3 2-3-2-1 4h-2l-5-7h3v-2l-4-1z" fill="#2A3049"/>
<path transform="translate(414,1060)" d="m0 0h3l1 5 3 1 4 7v2l4 2 1 3h2v7l-3-3v-2h-2l-4-7-4-6v-2h-2l-3-5z" fill="#3A375C"/>
<path transform="translate(316,876)" d="m0 0 4 2 6 10 4 5 2 7-1 3 3-1-1 5-3-1-4-13-6-10-4-4z" fill="#4A3140"/>
<path transform="translate(182,958)" d="m0 0 2 1v4l-11 4-8 1 2-4z" fill="#302845"/>
<path transform="translate(433,1087)" d="m0 0 5 5 3 4v2h2l5 8-1 9-3 1v-8l-4-9-7-10z" fill="#332C38"/>
<path transform="translate(257,243)" d="m0 0 10 2 2 4-1 2-6-1-10-3 1-3zm-3 2 2 2v-2z" fill="#1D2039"/>
<path transform="translate(1207,841)" d="m0 0 9 6 8 9v2l-4-2-5-5-5-2-1-3h-2z" fill="#253056"/>
<path transform="translate(1222,248)" d="m0 0h1l-1 10-5 12-9 13h-3l7-11 2-1 2-6h2l1-6z" fill="#2C3043"/>
<path transform="translate(595,1033)" d="m0 0 4 1 18 10 9 6-3 2-7-4-4-4-8-4-5-2z" fill="#1B3485"/>
<path transform="translate(1297,350)" d="m0 0 2 1-1 3-8 4-5 5-1-2-2-1 4-5 8-4z" fill="#1D3989"/>
<path transform="translate(153,1044)" d="m0 0 3 1 6 16-1 2h-4l-1-8-3-5-1-5z" fill="#3C2E45"/>
<path transform="translate(1081,907)" d="m0 0h2l-2 4-15 14h-3l1-3h3l2-4 3-1-1-3 3-1 1-3z" fill="#14204C"/>
<path transform="translate(122,967)" d="m0 0 3 4 4 10 1 5-2 2-3-3-1-6-3-4z" fill="#34293F"/>
<path transform="translate(120,963)" d="m0 0 1 2h2v6l-5 5-4-3 1-7h3 2z" fill="#282E44"/>
<path transform="translate(1146,883)" d="m0 0 2 1-10 9-7 5-5 5-1-6 12-6 5-5z" fill="#2C2E40"/>
<path transform="translate(281,260)" d="m0 0 16 4-2 4-1 6-5-5v-2l-6-3v-2h-2z" fill="#A0C3F5"/>
<path transform="translate(891,324)" d="m0 0 12 1 15 2v1l-6 1h-8l-16-3z" fill="#28489A"/>
<path transform="translate(564,1013)" d="m0 0 5 2 11 7 6 4-3 2-4-2-10-7-3-3-2-1z" fill="#1D3684"/>
<path transform="translate(213,991)" d="m0 0h6l2 3-8 4-6 1 2-6z" fill="#292742"/>
<path transform="translate(1225,859)" d="m0 0 7 6 12 14-2 3-6-8-5-5-3-4-3-3z" fill="#303357"/>
<path transform="translate(930,211)" d="m0 0 4 1 3 1 4 7v2l-7-1h-3l1-8z" fill="#F86D6E"/>
<path transform="translate(112,970)" d="m0 0 5 4 3 11-2 4-6-13-1-5z" fill="#161C33"/>
<path transform="translate(1029,979)" d="m0 0 1 3-1 4-2 1-1 3-4 1v-2l-4-1v-2z" fill="#1E2C46"/>
<path transform="translate(1224,169)" d="m0 0h8l1 4-1 7-3-1-2-2h-2v-4z" fill="#0F1B3A"/>
<path transform="translate(209,1194)" d="m0 0h2l3 7 3 1 2 8-1 1-1 4-5-10z" fill="#262E44"/>
<path transform="translate(105,161)" d="m0 0 2 4-3 11-2 8h-2l-1 5-1-3 6-23z" fill="#1F3D90"/>
<path transform="translate(238,1122)" d="m0 0 4 1-5 3-6 2-6 3h-5l3-4 7-3z" fill="#332A42"/>
<path transform="translate(214,1094)" d="m0 0h7l-1 2-4 2-9 3-1 2-3-1 1-4z" fill="#322841"/>
<path transform="translate(512,969)" d="m0 0 4 2 6 4 12 12-1 2-21-18z" fill="#E2F1FD"/>
<path transform="translate(153,322)" d="m0 0 6 1-1 11-2 2 1-6h-2v2l-3-1v-4h2z" fill="#191D3B"/>
<path transform="translate(236,243)" d="m0 0h13v2l2 2-9 1-10-3z" fill="#213478"/>
<path transform="translate(987,1106)" d="m0 0h7l5 7v3h-3l-1-2-4-1z" fill="#312E42"/>
<path transform="translate(432,1083)" d="m0 0 5 4v2l4 2 2 3-1 2 4-1v6l-3-1v-2h-2l-7-10h-2z" fill="#2A3045"/>
<path transform="translate(617,301)" d="m0 0h9l-1 2-15 2-10 1v-2l10-2z" fill="#203E97"/>
<path transform="translate(278,253)" d="m0 0 7 1 1 4-1 3-9-2-3-2v-2l7 1-3-2z" fill="#1F2C54"/>
<path transform="translate(795,309)" d="m0 0 21 3 1 3-12-1-9-3z" fill="#21429C"/>
<path transform="translate(137,287)" d="m0 0 2 1-1 7-3 11-4 1 1-4 4-13z" fill="#242C4D"/>
<path transform="translate(189,965)" d="m0 0h5v4l-8 3-4-1 1-1-2-2z" fill="#342C45"/>
<path transform="translate(120,955)" d="m0 0 3 1-1 9-5 2-2-1 1-5z" fill="#131C33"/>
<path transform="translate(1010,945)" d="m0 0 2 4 1 4 2 1-1 4-3 1-3-4v-7z" fill="#15203C"/>
<path transform="translate(993,338)" d="m0 0 8 1-4 1v2l7 1 4 2-2 1-10-2-1-1-16-2v-1h16z" fill="#1742CE"/>
<path transform="translate(628,1052)" d="m0 0 6 2 16 9 5 3-2 1-14-7-5-2-6-5z" fill="#1D3989"/>
<path transform="translate(865,950)" d="m0 0v3l-5 6-4 2-8 10-4 1 4-6 5-5z" fill="#1237BA"/>
<path transform="translate(1245,882)" d="m0 0 7 6 3 3v3l-3 1-5-5v-2h-2z" fill="#34344D"/>
<path transform="translate(426,868)" d="m0 0 4 5 9 13-3 3-3-5v-2h-2l-2-6-3-5z" fill="#1E3886"/>
<path transform="translate(253,394)" d="m0 0 2 1-6 8-6 5-3 1 2-5h2v-2l5-5z" fill="#93C0FA"/>
<path transform="translate(1102,265)" d="m0 0 4 2 3 7 2 2-7 1-2-4z" fill="#101D3F"/>
<path transform="translate(159,930)" d="m0 0 4 1-12 5-10 4h-2l2-4 1-1 10-2z" fill="#16214B"/>
<path transform="translate(143,357)" d="m0 0 6 1 1 1 7 1v2l4-1 3 3-3 1-16-5-2-1z" fill="#121D40"/>
<path transform="translate(209,299)" d="m0 0h9l4 2-5 1v3l-1 1-8-1-2-2h5v-2z" fill="#131E3E"/>
<path transform="translate(147,281)" d="m0 0h3l2 3 5 2-1 2-10-2-6-2v-2z" fill="#1D2D55"/>
<path transform="translate(335,906)" d="m0 0h3l2 4h1l3 9 1 2h-4l-6-11z" fill="#252E45"/>
<path transform="translate(365,741)" d="m0 0 3 1v5h3l3 7v4l-3 1-2-4v-4l-2-5-2-1z" fill="#163AAD"/>
<path transform="translate(346 1e3)" d="m0 0h7v3h2l1 7-2 2h-3v-6l-1-4z" fill="#4E3544"/>
<path transform="translate(937,341)" d="m0 0 11 1 2 3-7 1-10-2-1-2z" fill="#1239C0"/>
<path transform="translate(130,289)" d="m0 0 2 2-2 9-1 6h-2l-1 2-1-1 1-8z" fill="#1C2848"/>
<path transform="translate(185,1132)" d="m0 0 4 2 2 8-2 4-2-4-4-7z" fill="#242F56"/>
<path transform="translate(1119,893)" d="m0 0h9v2l-4 1-2 3-6 1-2-2z" fill="#2A3049"/>
<path transform="translate(203,292)" d="m0 0h3l3 2 4 1 1-3-1 6 3 1-3 1-8-1-2-3z" fill="#2E375D"/>
<path transform="translate(215,240)" d="m0 0 10 2 5 2-1 3-6-1-7-3z" fill="#9BC3FA"/>
<path transform="translate(433,1117)" d="m0 0 3 4 2 4 3-2-3 9-3-1-1-6-2-3z" fill="#644A3D"/>
<path transform="translate(224,1213)" d="m0 0 2 3 5 7 2 2v2l-4-1-5-4-1-6z" fill="#3A3249"/>
<path transform="translate(198,1150)" d="m0 0 2 3 2 6-1 2h-2l-3-3h-2v-2h-2l1-4h3z" fill="#252B55"/>
<path transform="translate(931,333)" d="m0 0 12 1 4 1v2l-2 1h-6v-2h-7z" fill="#0E37CB"/>
<path transform="translate(131,313)" d="m0 0 1 3h-3l1 6h-6l-2-2 1-3v2h2l-1-4z" fill="#1E263F"/>
<path transform="translate(176,265)" d="m0 0 2 2-1 6-2 9h-3v-8z" fill="#2D304F"/>
<path transform="translate(1220,109)" d="m0 0 2 4v29h-1l-1-6v-17l-1-2 1-2-2-1v-3h2z" fill="#1D2F56"/>
<path transform="translate(192,344)" d="m0 0 3 2-1 10-2 1-1-2-2 1v-5l1-5z" fill="#101C3D"/>
<path transform="translate(943,332)" d="m0 0h9l14 2-2 2h-12v-2l-9-1z" fill="#203063"/>
<path transform="translate(842,318)" d="m0 0h8l15 2v2l4 1-12-1-15-3z" fill="#1C3481"/>
<path transform="translate(100,255)" d="m0 0h2v10l-2 3h-4l3-11z" fill="#94C0F9"/>
<path transform="translate(469,327)" d="m0 0h3v4l3-1-2 4-8 1 1-3-1-2h3z" fill="#1337B4"/>
<path transform="translate(248,247)" d="m0 0 9 1 7 2v1h-8l-2 1-10-3z" fill="#1E3683"/>
<path transform="translate(110,195)" d="m0 0 6 3-1 7-7-1-2 1-1-3 5-1h1l-2-5z" fill="#232D4B"/>
<path transform="translate(331,894)" d="m0 0 4 4 1 6 2 1-4 3-1-5h-2l-1-4 1-1z" fill="#1E263E"/>
<path transform="translate(1321,370)" d="m0 0h1v11l-7-3v-4l6-1z" fill="#E7EFF5"/>
<path transform="translate(189,1141)" d="m0 0 3 1 3 10-1 3-4-4z" fill="#22293F"/>
<path transform="translate(1181,83)" d="m0 0h6l1 5h-6l-1 2-2-1 1-5z" fill="#F5696F"/>
<path transform="translate(197,1158)" d="m0 0 2 1v2h2l1-2 4 9v3l-3-1-6-10z" fill="#2E2942"/>
<path transform="translate(373,336)" d="m0 0 9 2v2l-6 2-2 1-3-2v-2l-2-2z" fill="#123CCE"/>
<path transform="translate(273,179)" d="m0 0 9 2 5 2-1 2-8-1-4-2z" fill="#1B3483"/>
<path transform="translate(191,1029)" d="m0 0 2 1-5 5-7 2-1-3 5-3z" fill="#3B2E4A"/>
<path transform="translate(1299,956)" d="m0 0h3l1 4 4 2 5 5v3l-4-2-3-3v-3l-3-1z" fill="#202D46"/>
<path transform="translate(216,413)" d="m0 0 5 1 4 3v2l-11-2-2-1v-2l4 1z" fill="#1D3889"/>
<path transform="translate(166,222)" d="m0 0 8 1 6 1v4l-9-2-5-2z" fill="#182C62"/>
<path transform="translate(123,207)" d="m0 0 3 2 3-1 5 3 3 2-1 2-15-5v-2z" fill="#1A2756"/>
<path transform="translate(195,1159)" d="m0 0 3 1 4 9 1 5-2-4-3-1-3-6z" fill="#1E2848"/>
<path transform="translate(351,944)" d="m0 0 2 2 1 6 2 8h-2l-5-10 1-4z" fill="#312F39"/>
<path transform="translate(200,899)" d="m0 0 2 1-4 6-1 2-7 1v-3l9-6z" fill="#212246"/>
<path transform="translate(229,330)" d="m0 0 3 3 1-2-1 7-2 3-1-2h-2v-7z" fill="#101933"/>
<path transform="translate(424,1075)" d="m0 0 4 1 2 4h2v7l-3-3v-2h-2l-3-5z" fill="#45374A"/>
<path transform="translate(129,986)" d="m0 0h2l2 7v5l-4-3-2-8z" fill="#2A253F"/>
<path transform="translate(1255,893)" d="m0 0 6 5 3 5-4-1-3-2v-2h-2v-2h-2v-2z" fill="#232E56"/>
<path transform="translate(213,286)" d="m0 0h1l-1 9-6 1v-6l4-2 1 2z" fill="#111A34"/>
<path transform="translate(930,867)" d="m0 0h2v3h-2l-1 5h-3v2l-3-1 5-8z" fill="#1E4DC5"/>
<path transform="translate(1303,361)" d="m0 0h7l1 6-7-1v-2h-2z" fill="#EDF9FD"/>
<path transform="translate(530,325)" d="m0 0h10l-1 2-17 2-1-2z" fill="#0E37CC"/>
<path transform="translate(179,264)" d="m0 0 8 1 4 2-1 1h-9l-3 1z" fill="#E6F4FD"/>
<path transform="translate(257,243)" d="m0 0 6 1v2h-2v2l-4 1-5-2 1-3zm-3 2 2 2v-2z" fill="#292638"/>
<path transform="translate(200,231)" d="m0 0 11 2 2 2-7-1v2l2 1-5-1-5-2 2-1z" fill="#163189"/>
<path transform="translate(209,1031)" d="m0 0m-2 1 4 2-4 4-7 2-1-2 2-2h5z" fill="#292845"/>
<path transform="translate(967,797)" d="m0 0 1 4-2 4-1 5-3 1-1-3z" fill="#1237BA"/>
<path transform="translate(1319,390)" d="m0 0 2 1-1 4-3 2-5 1-3-1 5-1 1-3z" fill="#0F1933"/>
<path transform="translate(166,279)" d="m0 0 2 1v3l6 1-1 3-6-1-4-3h2z" fill="#1B3070"/>
<path transform="translate(1110,1192)" d="m0 0h2v2h-2v2l-4 2-4 4-4-1 1-2h3v-2l6-3z" fill="#2C3144"/>
<path transform="translate(207,1182)" d="m0 0 3 3 2 5-1 3-2-2-2 1-2-7z" fill="#282F43"/>
<path transform="translate(955,1058)" d="m0 0 1 2h3l-1 3 2 2-4 1h-3l-1-4 2-1z" fill="#1B294B"/>
<path transform="translate(548 1e3)" d="m0 0 4 2 11 8-2 1-9-5-4-4z" fill="#203E8E"/>
<path transform="translate(128,999)" d="m0 0 3 3h2l2 4-1 3-2 2-4-9z" fill="#213374"/>
<path transform="translate(459,913)" d="m0 0 4 1 8 10-2 2-10-12z" fill="#E0EFFD"/>
<path transform="translate(1321,383)" d="m0 0 2 4-5 5-3 2-2-2 5-5z" fill="#293665"/>
<path transform="translate(996,350)" d="m0 0 12 1v2l-4 1-12-2z" fill="#0F37C7"/>
<path transform="translate(997,340)" d="m0 0h8l3 2 5 1v1h-9l-7-2z" fill="#1C3688"/>
<path transform="translate(454,328)" d="m0 0 5 1-2 1v2h-5l-4-1h-3l-1-2z" fill="#1337B3"/>
<path transform="translate(235,1227)" d="m0 0 7 1 5 1-3 2-7-1v2l-4-2 1-2z" fill="#4E3747"/>
<path transform="translate(214,1030)" d="m0 0 4 2-2 3-6 1-1-4z" fill="#362C42"/>
<path transform="translate(123,938)" d="m0 0 4 2-2 4h-3-5l2-3z" fill="#1C337A"/>
<path transform="translate(179,919)" d="m0 0 7 1-4 4-9-1 3-2z" fill="#222946"/>
<path transform="translate(937,856)" d="m0 0 2 4-4 5-3 3v-4z" fill="#1337B3"/>
<path transform="translate(1205,845)" d="m0 0 2 4v3l-4 1-3-3h2l-1-3z" fill="#1C2B4E"/>
<path transform="translate(1186,838)" d="m0 0 2 1-3 5-7 1v-2z" fill="#101D43"/>
<path transform="translate(1331,375)" d="m0 0h1v10l-1 2h-3l-1-6 3-2z" fill="#1C3483"/>
<path transform="translate(183,366)" d="m0 0 3 1 2-1 1 5-5 1v-2h-3z" fill="#14203F"/>
<path transform="translate(951,341)" d="m0 0h7l-1 2-4-1 4 5h-7l-2-2 2-1z" fill="#123BC5"/>
<path transform="translate(385,334)" d="m0 0 4 1-1 2-13 1v-2z" fill="#1E3B96"/>
<path transform="translate(175,253)" d="m0 0 5 1v3l-7 2 1-5z" fill="#131D3B"/>
<path transform="translate(191,231)" d="m0 0 9 3 1 4-5-1-3-1v-3l-3-1z" fill="#92BCF8"/>
<path transform="translate(135,1041)" d="m0 0 6 2 2 4-1 4-2-4h-2l-3-4z" fill="#EFC6A6"/>
<path transform="translate(112,1028)" d="m0 0 5 3 2 5 2 1v3l-3-1-6-9z" fill="#111E44"/>
<path transform="translate(188,907)" d="m0 0 3 1-4 4-7 1 5-5z" fill="#171E40"/>
<path transform="translate(271,253)" d="m0 0 6 1 6 2-4 1-6-2v2l-6-1v-2z" fill="#142E8B"/>
<path transform="translate(206,234)" d="m0 0 10 1-1 4-6-1-3-2z" fill="#1A285A"/>
<path transform="translate(300,193)" d="m0 0 4 2 11 4v1l-8-1-7-3z" fill="#142249"/>
<path transform="translate(387,794)" d="m0 0 3 3 2 7-4-1v-3l-2-1z" fill="#193CA6"/>
<path transform="translate(359,709)" d="m0 0 2 1 2 9v6l-2-2-2-7z" fill="#1A3EA9"/>
<path transform="translate(740,574)" d="m0 0 9 1 1 2h-15v-2z" fill="#0E37CE"/>
<path transform="translate(462,331)" d="m0 0 2 1-1 4h-10l4-3z" fill="#1438B1"/>
<path transform="translate(287,290)" d="m0 0 1 2 2 1-1 1-1 7h-2l-1-5z" fill="#1B2F5E"/>
<path transform="translate(186,227)" d="m0 0 7 1 3 2-8 1-7-2v-1z" fill="#1B3684"/>
<path transform="translate(112,970)" d="m0 0 5 4 1 3-3 2-3-3-1-5z" fill="#1E213A"/>
<path transform="translate(309,944)" d="m0 0 2 1-4 5h-2v2h-2v-2l-2-1 3-3z" fill="#43334A"/>
<path transform="translate(1146,883)" d="m0 0 2 1-10 9-4 2 1-3 8-7z" fill="#2C2536"/>
<path transform="translate(273,787)" d="m0 0 4 1-6 8-6 4 2-4 3-1 2-4z" fill="#F98170"/>
<path transform="translate(1271,380)" d="m0 0h3l2 4-10 1v-2z" fill="#2C3144"/>
<path transform="translate(152,322)" d="m0 0 2 1v4l-4 2-7-1-1-2 10-1z" fill="#222848"/>
<path transform="translate(294,296)" d="m0 0 1 3-5 14h-1v-8l4-7z" fill="#23459C"/>
<path transform="translate(287,258)" d="m0 0 5 1 5 2-2 1v2l-6-1v-4z" fill="#162D7D"/>
<path transform="translate(289,253)" d="m0 0 7 1 4 2-4 2-7-2z" fill="#1B1D34"/>
<path transform="translate(1311,972)" d="m0 0 3 1 7 8 1 4-5-5-6-7z" fill="#2A2435"/>
<path transform="translate(432,340)" d="m0 0m-10 1h10l-1 2-13 1 1-2z" fill="#0E37CC"/>
<path transform="translate(88,265)" d="m0 0h1v8l-2 4-3 1 3-10z" fill="#21408F"/>
<path transform="translate(283,250)" d="m0 0 9 2-4 4v-2l-5 1-1-2z" fill="#443245"/>
<path transform="translate(1168,87)" d="m0 0 2 4-1 2h2v7l-3-1-1-6z" fill="#1E3A8B"/>
<path transform="translate(595,1033)" d="m0 0 4 1 9 5-4 1-5-2z" fill="#1D3785"/>
<path transform="translate(224,888)" d="m0 0 2 1-1 2h-3l-1 4-4 1 2-5h2v-2z" fill="#202C46"/>
<path transform="translate(1293,359)" d="m0 0 5 1-5 4-3 1-1-4z" fill="#2D3472"/>
<path transform="translate(381,350)" d="m0 0h7v2l-6 2h-5l3-1z" fill="#A5C0FA"/>
<path transform="translate(955,345)" d="m0 0h9l1 3h-8v-2z" fill="#1440CA"/>
<path transform="translate(395,335)" d="m0 0m-7 1h7l-2 2-10 2v-3z" fill="#0E37CE"/>
<path transform="translate(237,244)" d="m0 0 8 1 3 3-9-1z" fill="#1A2041"/>
</svg>
