<?xml version="1.0" encoding="UTF-8"?>
<svg version="1.1" viewBox="0 0 1613 2048" width="427" height="542" xmlns="http://www.w3.org/2000/svg">
<path transform="translate(423,289)" d="m0 0h601l29 1 44 4 28 4 23 5 39 11 23 8 18 8 21 10 20 12 19 13 12 9 10 9 8 7 12 12 7 8 8 9 13 18 13 22 8 14 11 26 6 17 8 29 5 29 3 26 1 13v55l-4 37-4 23-8 30-6 18-11 25-13 24-10 15-10 14-11 13-12 13-15 15-11 9-16 12-12 8-11 7-21 13-9 5-8 7-6 10-3 9-1 5v10l3 13 6 11 10 15 14 20 29 43 19 28 29 43 19 28 29 43 15 22 10 15 8 16 2 9v7l-4 14-5 9-9 10-7 4-4 2-6 1h-185l-9-3-6-4-8-8-10-14-48-72-8-11-8-12-13-20-11-16-10-15-11-16-28-42-11-16-26-39-17-25-8-10-11-7-10-4-58-1h-46l-28 1-16 8-7 5-7 11-4 9-1 5-1 252-2 15-5 10-10 11-10 6-9 2h-220l-3-2 1-10 4-8 9-8 4-2 57-1 10-3 7-8 3-7 1-10-3-9-4-6-1-3-5-2-3-1-55-1-158-1-8-4-5-5-4-6-1-3v-15l4-8 5-5 8-4 8-1h98l61-1 10-5 7-8 2-8v-10l-4-9-5-5-8-4-3-1-59-1-10-3-7-6-4-8-1-5v-7l4-11 4-5 10-6 11-1 77-1 9-4 5-6 3-7v-13l-4-9-4-5-8-4-7-1-122-1-10-5-5-6-3-9v-10l3-9 6-7 8-4 5-1 158-1 8-3 6-8 3-9v-10l-4-10-2-4-4-2-9-3-179-1-8-3-7-7-4-9-1-10 4-11 7-7 6-3 4-1 177-1 10-4 4-2 2-4 4-11v-10l-4-9-5-6-11-4-78-1-9-2-8-6-5-10-1-4v-7l3-9 5-7 8-4 5-1 33-1 8-4 6-7 2-6v-14l-5-10-9-7-4-1-76-1-8-2-7-4-6-8-2-6v-11l4-10 8-7 6-3 6-1 179-1 10-5 5-8 2-7v-7l-3-10-6-8-6-3-5-1-108-1-5-2-8-7-4-8-1-11 2-9 6-8 8-5 3-1 35-1 10-5 5-7 2-6v-13l-5-10-5-5-3-2-17-1h-73l-32-1-8-4-5-6-4-10v-11l4-10 4-5 8-4 89-1 10-2 8-6 5-9 1-4v-8l-2-6-4-6-7-6-8-2-159-1-10-5-7-8-3-8v-9l3-9 5-6 10-6 217-1 13-2 8-6 5-8 1-3v-12l-5-10-7-7-3-1-61-1h-125l-12-2-6-4-5-6-3-8v-12l3-9 9-8 4-2zm378 209-10 3-10 6-9 9-8 16-1 5v224l4 13 7 10 7 7 14 7 10 2h215l24-3 26-5 15-5 19-8 20-12 16-15 9-10 10-15 7-14 6-19 4-17 2-23-1-25-3-19-8-26-8-16-8-12-14-15-14-11-15-9-17-8-15-5-26-6-21-3-13-1z"/>
<path transform="translate(188,794)" d="m0 0h228l9 4 7 8 3 9v9l-4 10-6 7-7 3-6 1h-221l-7-2-9-8-4-8-1-3v-9l4-10 4-5z" fill="#030202"/>
<path transform="translate(510,1636)" d="m0 0 3 1-4 19-7 36-8 51-4 32-4 42-6 7-4 2h-65l2-11 9-44 7-44 6-54 2-22 2-5 5-4 5-2 21-2z" fill="#010101"/>
<path transform="translate(534,1636)" d="m0 0 18 1 16 4 12 6 10 9 6 10 2 7v17l-4 10-8 11-11 8-12 6-18 5-5 1 16 2 12 4 9 6 6 7 2 5v44l3 6 8 5 1 3-4 10-5 2-23 4-21 1-14-2-12-6-4-7v-16l5-33v-15l-4-8-7-4 1-5 7-8 8-6 8-14 4-16v-16l-4-16-6-9-2-2 1-4 6-6z" fill="#020101"/>
<path transform="translate(1100,1640)" d="m0 0 10 2 14 6 12 9 8 8 9 14 6 15 3 16v30l-4 18-6 16-8 14-8 10-12 12-14 9-14 6-15 4-22 3 1-4 10-11 9-16 6-15 5-18 4-21 2-24v-20l-2-26-4-23-1-6 7-6z" fill="#7B5758"/>
<path transform="translate(1074,1637)" d="m0 0h9l-6 7-9 12-8 15-8 24-5 24-2 20v33l3 27 3 14v8l-8 6-6 1-14-5-11-6-10-8-8-10-8-15-5-15-2-11v-30l4-19 8-19 9-14 11-13 13-10 15-8 20-6z" fill="#7B5758"/>
<path transform="translate(197 1e3)" d="m0 0h174l8 3 7 8 4 11v8l-4 10-8 8-5 2-7 1h-163l-9-2-6-4-5-6-4-9v-9l4-11 4-5z" fill="#020101"/>
<path transform="translate(883,1684)" d="m0 0h4l-2 5-3 4-1 3v8l4 11 8 11 9 8 19 14 11 9 8 9 6 12 1 4v13l-4 10-7 8-12 7-16 5-12 2h-15l2-8v-12l-5-10-7-8-14-11-17-13-10-9-7-9-4-9-1-5v-8l4-13 7-9 10-7 10-5 13-4 10-2z" fill="#010101"/>
<path transform="translate(711,1685)" d="m0 0 14 1-16 16-7 10-7 14-4 14-1 6v21l3 10 7 10 9 8 12 6 11 3 9 1h29v4l-13 9-15 6-12 3-19 2h-10l-19-2-15-4-16-8-9-7-7-8-6-10-4-12-1-6v-20l4-16 7-14 7-9 11-10 11-7 15-6 18-4z" fill="#020101"/>
<path transform="translate(214,392)" d="m0 0h112l10 5 6 7 3 11-1 10-5 10-8 6-7 2h-108l-10-5-7-8-3-11 2-12 3-6 7-6z" fill="#010000"/>
<path transform="translate(301,594)" d="m0 0h49l20 1 8 4 6 7 4 10v7l-3 9-9 10-9 3h-73l-8-3-6-5-5-10-1-10 3-10 4-6 8-5z" fill="#020101"/>
<path transform="translate(267,902)" d="m0 0h72l9 3 6 5 5 9 1 11-4 11-4 5-8 5-3 1h-76l-8-4-6-7-4-10v-9l4-9 7-8z" fill="#010101"/>
<path transform="translate(226,1207)" d="m0 0h52l11 1 8 4 6 7 3 7v15l-5 10-6 5-8 3-18 1h-41l-11-2-9-6-5-8-2-7v-7l3-9 4-6 8-6z" fill="#030202"/>
<path transform="translate(1136,1841)" d="m0 0h5l2 5v5l-7 12-8 11-9 8-8 4-7 2h-19l-16-4-35-13-25-6-9-2-1-2 3-8 5-3 18-4 10-1h74l22-3z" fill="#7B5758"/>
<path transform="translate(744,1689)" d="m0 0 8 1 14 7 12 11 7 13 1 4v16l-4 10-9 10-8 6-11 5-13 3h-24l-5-2 2-4 8-7 6-10 4-15 1-9v-30l8-7z" fill="#020101"/>
<path transform="translate(447,594)" d="m0 0h24l12 2 8 6 5 9 1 4v10l-3 8-8 9-8 3h-37l-8-4-7-8-4-8v-10l6-12 7-6 5-2z" fill="#030202"/>
<path transform="translate(827,1777)" d="m0 0 4 1 1 13 4 8 11 8 17 8-1 5-4 6-3 1h-22l-14-3-14-7-4-5-2-5v-8l4-9 5-5 10-5z" fill="#040303"/>
<path transform="translate(907,1685)" d="m0 0h13l12 2 16 8 7 8 2 5v7l-5 8-8 5-15 4-4-1-2-11-6-12-8-7-9-5 1-4z" fill="#050303"/>
</svg>
