<?xml version="1.0" encoding="UTF-8"?>
<svg version="1.1" viewBox="0 0 2048 1536" width="577" height="433" xmlns="http://www.w3.org/2000/svg">
<path transform="translate(683,325)" d="m0 0h39l159 9 67 4 94 5 67 4 130 8 22 2 15 5 9 6 10 10 9 14 7 17 6 21 5 30 2 23 2 38v104l-3 90-3 131v121l2 61 3 44 4 35 5 28 6 24 7 21 7 16 12 20 4 4h13l117-9h15l-6 7-12 11-13 10-16 9-13 4-32 5-46 5-201 18-283 25-15 1h-13l-13-2-13-5-16-9-10-8-11-11-12-18-7-15-7-20-7-25-6-30-5-37-4-45-2-37-1-35-1-64v-46h-16l-107 2h-14l2-2 10-4 17-11 11-11 9-14 8-19 6-21 3-14 3-28 1-18v-23l-2-28-3-21-8-36-11-41-15-52-9-36-6-32-3-26v-44l3-22 6-21 7-16 7-11 7-9 9-8 14-7zm171 130v16l1 23 1 58 1 27 3 1 22 1 50 1h29l1-1 1-10-2-75-2-35-1-3-4-1-54-1-32-1zm163 34-3 2-1 5 3 7 5 4 7 1 68 2 95 2 42 1h43l3-2 1-7-3-5-2-2-4-1-59-2-82-3-92-2zm3 45-5 5v8l5 5 2 1 84 2 57 1h67l5-3 1-1v-7l-4-6-3-2-10-1-44-1-88-1zm-164 116-1 1-1 10-2 89v24l2 3 5 1 76-1 20-1 2-3 1-9 1-26 1-71 1-2v-9l-3-5-2-1zm213 29-42 1-9 1-5 4v7l4 6 4 2h59l100-1 8-6 1-5-5-6-8-2-39-1zm137 1-4 4-1 7 3 7 43 1h17l11-2 3-3 1-6-2-5-7-3zm-104 44-83 1-5 2-4 5 1 7 4 4 5 2h35l94-1 4-2 1-2v-12l-2-3-4-1zm-167 120-58 1-26 1-1 1v122l3 3h26l57-2 16-1 2-1 1-5 1-116-3-3zm321 20-100 2-63 2-78 3-7 6-1 4 3 7 4 3h31l26-1 89-2 90-4 15-1 7-3 2-5-1-7-3-3-3-1zm-97 46-98 4-39 2-10 2-5 5v7l5 5h34l40-1 71-3 28-1 10-3 3-3 1-4-3-6-5-4zm-219 126-62 3-21 2-5 2v11l3 43 5 48 3 16 2 3h11l71-4 17-2 4-3-2-21-5-47-2-24-1-26-1-1zm277 13-66 3-91 5-35 3-9 2-3 3v8l5 6 2 1h11l31-2 48-3 43-3 58-3 16-2 5-4 1-6-3-5-7-3zm-40 45-25 2-8 3-1 1v7l4 6 2 1h16l31-2 8-2 2-5-1-7-4-4zm-81 5-52 4-19 2-8 3-1 1v8l4 5 9 2 26-2 43-3 11-2 5-5-1-9-4-4z" fill="#95AAF0"/>
<path transform="translate(679,326)" d="m0 0h22l10 6 10 9 1 3 3 2v3h2v3h2l1 5h2l5 11 4 10 2 7 2 10 2 5 5 29 3 26 1 19 1 39v56l-1 75-1 44-1 31-1 56-3 106-1 15-2 2-13 1-107 2h-14l2-2 10-4 17-11 11-11 9-14 8-19 6-21 3-14 3-28 1-18v-23l-2-28-3-21-8-36-11-41-15-52-9-36-6-32-3-26v-44l3-22 6-21 7-16 7-11 7-9 9-8z" fill="#758EF1"/>
<path transform="translate(1500,1211)" d="m0 0h15l-6 7-12 11-13 10-16 9-13 4-32 5-46 5-201 18-251 22h-26l-1-3 3-3 9-6h2l1-3 7-5 6-7h2v-2h2l1-3h2v-2h2v-2h2v-2h2l2-4h2l1-2 44-4 336-28 19-2 33-2 7-2 92-7z" fill="#758EF1"/>
<path transform="translate(679,326)" d="m0 0h22l10 6 10 9 1 3 3 2v3h2v3h2l1 5h2l5 11 4 10 2 7 2 10 2 5 3 16 3 36v43l-2 5-2 1-7-4-7-1-12-5-9-8v-2h-2l-5-5-8-7-5-5-8-9-2-1v-2l-4-2-6-5-9-12v-2h-2l-9-16-4-5-4-9-4-10-2-8-1-11 2-5 2-7 6-10 7-9 9-8z" fill="#5674F1"/>
<path transform="translate(735,737)" d="m0 0h11l3 4 1 21v73l-1 32-2 19-4 4-7 3-8 1-34-3-14-4-2-1v-2l-6-2-7-8v-10l3-8 7-10 3-6h2l2-5 6-10 9-11 7-12 9-21 5-16 5-10 2-7 9-9z" fill="#5674F1"/>
<path transform="translate(869,472)" d="m0 0h19l58 2 1 6 1 24v61l-7 1-50-1-20-1-1-3-1-55zm60 17-7 6-9 12-8 11-5 6-4-1-9-11-2-2h-7l-5 6 1 6 11 16 6 8 5 4h7l8-7 8-10 7-10 11-15 4-8-1-7-4-4z" fill="#95AAF0"/>
<path transform="translate(924,861)" d="m0 0h16l1 1v74l-1 15-9 2-20 1h-47l-1-2v-84l1-5 11-1zm0 15-8 7-9 12-10 14-4 6-4-1-8-10-3-2-7 1-4 4-1 5 3 7 10 13 7 8 4 2 7-1 6-7 13-17 10-13 7-11 3-6-1-5-8-6z" fill="#96ABF0"/>
<path transform="translate(704,332)" d="m0 0h5l6 3 6 6 1 3 3 2v3h2v3h2l1 5h2l5 11 4 10 2 7 2 10 2 5 2 10v19l-3 1-5-3-2-2-14-1-5-3-7-7-8-4-6-5-8-5-15-10-4-2v-2h-2l-2-5h-2l-7-10-2-6v-7l4-6 9-5 5-4 19-7z" fill="#4565F0"/>
<path transform="translate(877,668)" d="m0 0h55l12 1 1 1v22l-1 51-1 14-1 1-13 1-58 1-3-1-2-5 2-80 1-4zm52 14-6 4-9 10-7 10-11 13-3 1-2-5-7-8-2-1h-6l-5 5v7l6 11 10 13 8 6 5-2 7-7 7-8 8-10 10-12 7-15v-8l-5-4z" fill="#95AAF0"/>
<path transform="translate(937,1053)" d="m0 0h7l2 32 4 41v13l-3 2-19 2-31 2-21 2-2-6-3-18-2-19-2-33v-7l1-5 8-2 29-2 22-1zm-10 14-7 8-11 16-9 12-2 4-5-5-7-6-2-1h-6l-5 3-1 6 3 5 8 8 8 10 8 7 6-1 7-7 11-16 9-14 8-15v-7l-5-5-4-2z" fill="#95AAF0"/>
<path transform="translate(626,420)" d="m0 0h2v19l3 20 3 16 8 22 4 10 5 10 9 21 7 17 3 9 3 16 4 14 6 28 1 9 1 2 1 13 1 4 1 23-1 15v25l-1 5v20l1 7-2 12h-1l-2-40-4-30-8-36-11-41-15-52-9-36-6-32-3-26z" fill="#95AAF0"/>
<path transform="translate(679,326)" d="m0 0 4 1-7 3-2 2-10 5-5 4-6 7-5 5 2-4 6-8 9-8z" fill="#7D95F1"/>
</svg>
